<svg xmlns="http://www.w3.org/2000/svg" viewBox="0 0 1114.71 1586.56"><defs><style>.cls-1{fill:#006837;stroke:#006837;}.cls-1,.cls-2,.cls-8,.cls-9{stroke-miterlimit:10;}.cls-2{fill:#ff0;stroke:#ff0;}.cls-3{fill:#fffcd3;}.cls-4{fill:#ffeca1;}.cls-5{fill:#715a00;}.cls-6{fill:#ed1e79;}.cls-7{fill:#9e005d;}.cls-8{stroke:#000;}.cls-8,.cls-9{stroke-width:3px;}.cls-9{fill:#fff;stroke:#fff;}.cls-10{fill:#ff5da6;}.cls-11{fill:#422b17;}.cls-12{fill:#42210b;}.cls-13{fill:#ff5dbc;}.cls-14{fill:#ff21d2;}.cls-15{fill:#ffb172;}</style></defs><g id="flor"><path class="cls-1" d="M1188.25,1135.94h0a6,6,0,0,0-2.65,1.32c-85.83,73-103,133.4-122.77,119.71-58.18-40.3-149.44-163.39-173.22-196.14C878.44,866.23,727.41,712.08,542.7,712.08c-191.94,0-347.55,166.49-347.55,371.85q0,14.71,1,29.12c-9,16.45-65.8,120.49-82.27,173.57-.83,2.68-1.52,5.23-2.09,7.64-.14.64-.28,1.29-.41,2-.18.91-.35,1.84-.52,2.84a.7.7,0,0,0,0,.14,1.25,1.25,0,0,0,0,.19c-9.37,55.59,28.45,142.39,80.87,201.22q1.71,1.92,3.43,3.79c6.07,6.59,11.25,2.4-29.13-69.36-22.71-40.37-34.87-87.82-30.2-118.82,5.17-34.18,42.75-101.37,69-145,16.15,71.84,51.78,135.58,100.59,184.42,6.46,28.17,38.19,161.19,69.18,193.43a8.59,8.59,0,0,1,1.51-.3c6.56-.64,12.83-2.77,19.17-4.62,1-31-17-94-32.5-142,52.51,34.06,114.11,53.68,180,53.68,73.83,0,142.28-24.63,198.58-66.64-.24,48.71,2,123.08,16.44,152a7.27,7.27,0,0,0,1.11,1.64c5.84,6.78,21.59,1.2,21.9-4.56,0-.39,0-.78.06-1.18,2.28-41.24,2.63-153.63,2.68-185,61.75-63.48,101.62-151.14,106.32-248.73,32.78,39.13,92.79,119.61,138.67,159.22.9.68,2.79,2.15,5.64,4.3,4.22,3.18,10,7.46,15.89,11.55,11.21,7.82,20,12.55,23.07,11.31,33.18-13.24,96.59-97.22,123.33-142.67.4-.68.78-2.09,1.17-2.76C1200.13,1139.89,1193.49,1134.79,1188.25,1135.94Z" transform="translate(-108.92 -95.17)"/><ellipse class="cls-2" cx="434.64" cy="987.19" rx="347.46" ry="372.22"/><path class="cls-3" d="M442.3,609.32c-4.21-18.2-13.93-34.55-22.46-51.17C370.7,462.41,359.26,348,388.48,244.38c7.18-25.48,17.77-51.72,39.09-67.42,11.7-8.62,25.74-13.35,39.54-17.89,60.57-19.89,123-38.62,186.72-36,12.52.51,25.63,2.06,35.9,9.23,13.76,9.6,19.4,27,23.52,43.22,14.62,57.67,21,117.72,15.32,176.94-7.31,75.5-34,147.58-60.47,218.67-2.56,6.86-5.17,13.84-9.6,19.68-13.35,17.6-38.44,20-60.52,20.86L464.22,617c-8.32.33-18.15-.06-22.79-7" transform="translate(-108.92 -95.17)"/><path class="cls-4" d="M443.74,608.92c-5.33-22.56-18.42-42.26-28.26-63a421.51,421.51,0,0,1-24-63.24,438.36,438.36,0,0,1-17.27-132.93,427.29,427.29,0,0,1,6.86-66.85c3.87-21.14,8.9-42.55,17-62.49,8-19.51,20-37.28,38.82-47.66,10.05-5.56,21-9.12,31.91-12.69,11.83-3.88,23.68-7.69,35.58-11.31,47.33-14.35,96.34-25.8,146.11-24.36,11.05.33,22.7,1,32.83,5.89,9.18,4.42,15.66,12.15,20.11,21.16,4.67,9.44,7.22,19.78,9.7,29.95q4.4,18,7.66,36.25c8.81,49.29,11,99.85,4.55,149.57-6.33,48.58-20.32,95.81-36.37,142-4.09,11.78-8.33,23.51-12.63,35.22-4.09,11.13-7.94,22.43-12.49,33.39-4.08,9.84-10.16,17.9-19.62,23.07-8.23,4.5-17.64,6.62-26.88,7.79-10.51,1.35-21.14,1.53-31.71,2l-38.85,1.56-77.71,3.11c-8.46.33-20.74,2-26.41-6-1.1-1.57-3.71-.07-2.59,1.51,5.45,7.67,15.52,8,24.09,7.71,13.11-.48,26.23-1.05,39.34-1.57l80.16-3.21c19.9-.79,41.61-.19,59.95-9.14a44.32,44.32,0,0,0,20.14-19.46,132.21,132.21,0,0,0,6.39-15.36q3.33-9,6.66-18c17.5-47.38,34.33-95.25,44.73-144.77a484.45,484.45,0,0,0,7.71-151.21,574.19,574.19,0,0,0-13.23-75.2c-4.6-18.87-10.23-40.92-28.33-51.39-9.37-5.43-20.39-7-31-7.55a298.1,298.1,0,0,0-37.57.45c-25.14,1.8-50,6.36-74.47,12.38-24.8,6.11-49.2,13.73-73.47,21.66-11.09,3.62-22.32,7.14-32.76,12.43a79.36,79.36,0,0,0-24.68,19.28c-13.43,15.76-20.91,35.69-26.51,55.37A422.71,422.71,0,0,0,374,310.3a440.23,440.23,0,0,0,5.79,137.23,433.74,433.74,0,0,0,18.87,66.25q6,15.93,13.16,31.36c5,10.7,10.66,21.05,16,31.57s10.28,21.42,13,33c.44,1.87,3.34,1.08,2.89-.8Z" transform="translate(-108.92 -95.17)"/><path class="cls-3" d="M707.63,158.09a84.31,84.31,0,0,0,61-26.55c6-6.4,10.91-13.75,17.49-19.49,10.73-9.34,25-13.69,39.2-15,6.3-.59,12.76-.62,18.82,1.18,9.83,2.93,17.66,10.35,24.24,18.22,31.5,37.61,42.33,91.52,27.8,138.38-7.77,25-22,47.46-33.71,70.91C833,384.85,819.2,451.25,786.07,508.46A306.19,306.19,0,0,1,746.7,562c-16.09,17.52-35.32,33.71-58.57,38.71-7.24,1.56-15.91,1.51-20.71-4.13-5.53-6.5-2.81-16.34.16-24.35,24.49-65.92,47.53-132.89,58-202.42s8-142.3-17.45-207.85" transform="translate(-108.92 -95.17)"/><path class="cls-4" d="M707.63,159.59a86.2,86.2,0,0,0,49.74-16.13C765,138,771.14,131.18,777.13,124c6.29-7.59,13-14.2,22-18.53a78.06,78.06,0,0,1,28.17-7.06c10.6-.77,20.23,1.2,28.72,7.78,7.23,5.6,13.15,13,18.37,20.44a145.71,145.71,0,0,1,13.29,23.29c14.77,32.45,17.73,70.41,7.14,104.53-6.11,19.72-16.28,37.8-25.95,55.93a526,526,0,0,0-25.22,54.61c-14.8,37.42-26.52,76.06-43.35,112.66A335.27,335.27,0,0,1,770.54,530c-11.34,16.17-24.21,31.73-38.95,44.94A120.74,120.74,0,0,1,709,591.25c-7.86,4.27-16.89,8-25.89,8.72-4.17.34-8.73,0-12.29-2.37-4-2.68-5.26-7.31-5-11.88.23-4.37,1.64-8.65,3.14-12.73,1.86-5.08,3.75-10.14,5.61-15.21,14.74-40.23,28.62-80.85,39.2-122.4,10.34-40.63,17.47-82.19,19-124.14,1.45-40.69-2.36-81.8-13.47-121q-4.12-14.53-9.58-28.63c-.69-1.78-3.59-1-2.89.8,15.29,39.53,22.34,81.76,23.15,124.05.83,43-4.73,85.81-14.15,127.69-9.65,42.91-23.24,84.82-38.06,126.19C674,550.68,670.13,561,666.3,571.38c-2.73,7.4-5.78,16.75-1.45,24.17,4.15,7.11,13,8.19,20.42,7.17,8.94-1.22,17.69-4.75,25.56-9.08,16.63-9.14,30.37-22.82,42.7-37a307.41,307.41,0,0,0,35.6-50.48c20.15-35.71,33.1-74.8,47.1-113.17,7.1-19.47,14.51-38.86,23.31-57.63s19.65-36.72,28.46-55.59c8.12-17.39,13.87-35.53,15.53-54.71a153.38,153.38,0,0,0-4.85-53.27,149.55,149.55,0,0,0-23.11-48.6c-5.26-7.23-11.09-14.29-18.24-19.72-8-6.1-17.2-8.57-27.21-8.22-19.15.68-37.88,7.15-50.86,21.65-6.52,7.28-12.22,15.11-19.87,21.32a83.06,83.06,0,0,1-51.76,18.42,1.5,1.5,0,0,0,0,3Z" transform="translate(-108.92 -95.17)"/><path class="cls-3" d="M842.09,379.44c5.11,1.09,7.94,6.95,7.7,12.18s-2.66,10-4.49,14.94a68.46,68.46,0,0,0,2.46,53.18c2.85,5.88,6.53,11.32,9.38,17.2,6.67,13.74,8.53,29.32,8.75,44.58.21,14.67-1.08,29.64-6.76,43.16-10.87,25.87-35.79,42.57-59.39,57.74-8,5.15-16.56,10.48-26.08,10.76-12.62.38-23.51-8-34.33-14.51a129.84,129.84,0,0,0-54.76-17.88" transform="translate(-108.92 -95.17)"/><path class="cls-4" d="M841.69,380.89c5.41,1.26,7.16,7.68,6.43,12.54a44.56,44.56,0,0,1-3.12,9.8,77.34,77.34,0,0,0-3.12,9.13,70.33,70.33,0,0,0,.92,38.91c2.09,6.63,5.37,12.64,8.82,18.64a87.73,87.73,0,0,1,8.46,18.8c3.93,13.26,4.68,27.41,4.25,41.17s-2.75,27.49-9.18,39.73c-5.53,10.53-13.54,19.49-22.45,27.29-9.13,8-19.22,14.83-29.39,21.43-10.65,6.91-22.4,15.51-35.83,12.84-6.21-1.24-11.85-4.27-17.23-7.5-5.73-3.45-11.29-7.16-17.24-10.24a131.51,131.51,0,0,0-38.66-12.88q-4.86-.79-9.78-1.26c-1.92-.17-1.9,2.83,0,3A128.47,128.47,0,0,1,725.21,613a149.8,149.8,0,0,1,18.06,9.88c5.62,3.52,11.27,7.11,17.5,9.46a32.46,32.46,0,0,0,18.89,1.56c6.73-1.53,12.82-5.09,18.6-8.75A345.45,345.45,0,0,0,829,603.86c9.5-7.57,18.31-16.17,25-26.37,7.45-11.41,11.3-24.39,12.69-37.87a160.67,160.67,0,0,0,.63-21.27,137.11,137.11,0,0,0-2.14-21.21,83.92,83.92,0,0,0-6.25-19.93c-3-6.54-7.19-12.48-10.25-19A66.77,66.77,0,0,1,846,409c1.14-3.39,2.66-6.63,3.79-10,1.84-5.5,2.36-11.77-1.2-16.72a10.55,10.55,0,0,0-6.13-4.26c-1.87-.44-2.68,2.45-.79,2.9Z" transform="translate(-108.92 -95.17)"/><path class="cls-3" d="M687.89,601.68c9.89-2.73,18.83-8.11,27.14-14.13,25.23-18.28,45.46-42.75,62.05-69.13s29.73-54.73,42.76-83c8.16-17.73,16.4-35.77,19.18-55.09" transform="translate(-108.92 -95.17)"/><path class="cls-4" d="M688.29,603.13c8.47-2.38,16.28-6.59,23.53-11.5a188,188,0,0,0,20.31-16,246.37,246.37,0,0,0,34-38.36A385.93,385.93,0,0,0,794.61,491c8.88-16.76,16.91-34,24.85-51.18,7.78-16.89,15.94-33.93,19.79-52.24.48-2.27.88-4.55,1.22-6.85.28-1.89-2.61-2.7-2.89-.8-2.69,18.36-10.18,35.47-17.87,52.2-7.81,17-15.64,34-24.2,50.66a420,420,0,0,1-27.6,46.86,256.13,256.13,0,0,1-32.61,38.92A196.38,196.38,0,0,1,716,585c-6.91,5.13-14.24,10-22.27,13.14a61.61,61.61,0,0,1-6.23,2.1,1.51,1.51,0,0,0,.8,2.9Z" transform="translate(-108.92 -95.17)"/><path class="cls-3" d="M375.32,322.66c-4.82-41.5,19.05-80.56,26.08-121.74a70.34,70.34,0,0,0-91.89,28.33,224.37,224.37,0,0,1,66.08,106.06" transform="translate(-108.92 -95.17)"/><path class="cls-4" d="M376.82,322.66c-1.83-16.05.66-32.08,4.77-47.6,4.21-15.87,10-31.27,14.7-47a224.41,224.41,0,0,0,6.56-26.78,1.53,1.53,0,0,0-.69-1.69,73.21,73.21,0,0,0-43.28-6.32,72.32,72.32,0,0,0-50.66,35.19,1.53,1.53,0,0,0,.23,1.82,221.53,221.53,0,0,1,32.73,36.61A224.21,224.21,0,0,1,365,309.6a219.3,219.3,0,0,1,9.12,26.11,1.5,1.5,0,0,0,2.89-.8,225.83,225.83,0,0,0-46.78-86.72,221.15,221.15,0,0,0-19.68-20l.24,1.81a69.89,69.89,0,0,1,27-26.37,69.24,69.24,0,0,1,62.81-1.42l-.69-1.69c-2.82,16.33-8.14,32.07-13.31,47.77-5.09,15.46-10.13,31.07-12.33,47.25a109.41,109.41,0,0,0-.5,27.12c.21,1.9,3.21,1.92,3,0Z" transform="translate(-108.92 -95.17)"/><path class="cls-3" d="M374.29,346.22c-5.79-40.81-31.16-75.85-56.7-108.21-11.13-14.11-22.45-28.06-33.77-42-6.41-7.9-12.94-15.92-21.31-21.7-7.26-5-15.63-8.14-24-10.87a316,316,0,0,0-47.68-11.52c-3-.48-6.21-.91-9.09.15-4.58,1.71-7,6.6-9,11.08l-18.8,42.3c-6.31,14.19-12.67,28.54-15.56,43.8-7.29,38.46,8.1,77.22,23.48,113.22,10.23,23.95,20.81,48.22,37.5,68.22,10.59,12.71,23.42,23.39,34.22,35.92,37.55,43.59,48.24,106.45,89.2,146.86,3.59,3.54,7.51,6.95,12.26,8.66,12.25,4.4,25.05-3.58,36.54-9.71a143.07,143.07,0,0,1,52.63-16c2.29-.23,4.77-.48,6.46-2,3.14-2.88,1.71-8,0-11.94l-11.42-26.95c-15.05-35.53-30.17-71.3-38.67-108.94-9.4-41.65-10.48-84.67-11.52-127.36" transform="translate(-108.92 -95.17)"/><path class="cls-4" d="M375.74,345.82c-5.63-38.76-28.38-72-51.87-102.21-13.43-17.29-27.22-34.3-41.08-51.25-6.15-7.53-12.66-15-20.9-20.28-8.43-5.45-18.14-8.65-27.67-11.59a314.47,314.47,0,0,0-31.58-8A131.75,131.75,0,0,0,187.48,150a13,13,0,0,0-11,4c-2.86,3.12-4.44,7.16-6.13,11l-7,15.65c-4.53,10.18-9.1,20.35-13.57,30.55-4.16,9.51-8.14,19.14-10.87,29.17a111.63,111.63,0,0,0-3.9,30.48c.21,21.19,5.89,41.93,13.13,61.7,7.07,19.32,15.23,38.46,24.1,57,8.67,18.14,19,35.23,32.87,49.91,7,7.48,14.59,14.47,21.65,21.93A171,171,0,0,1,244.21,483c9.79,14.45,17.62,30.11,25.15,45.82,14.75,30.81,28.86,64.41,54.67,87.87,3.42,3.11,7.24,5.87,11.73,7.2a26.29,26.29,0,0,0,12.92.26c9.63-2,18-7.69,26.67-12a142.21,142.21,0,0,1,44.17-13.69c4-.55,9.36-.16,12.42-3.26,2.55-2.59,2.34-6.48,1.44-9.74-1.32-4.77-3.73-9.35-5.66-13.9-4.29-10.15-8.61-20.29-12.87-30.45-8.34-19.84-16.42-39.82-23.11-60.3a374.6,374.6,0,0,1-14.89-63.23c-3.16-22.06-4.53-44.33-5.34-66.59-.39-10.6-.65-21.21-.91-31.82-.05-1.93-3.05-1.93-3,0,1,42.45,2.11,85.26,11.37,126.87,9.07,40.7,25.86,79.1,42.06,117.35l6.24,14.74c1.56,3.68,4.87,9.11,3.51,13.3s-8.5,3.64-12,4.13a143.89,143.89,0,0,0-42.6,12.88c-8.71,4.18-16.92,9.89-26.35,12.41a23.82,23.82,0,0,1-14.35-.17c-4.53-1.63-8.22-4.95-11.6-8.27a149.1,149.1,0,0,1-16.55-19.54c-9.81-13.73-17.65-28.74-25-43.89-14.8-30.47-28.11-62.33-51.34-87.58-6.77-7.35-14.08-14.16-21-21.33a164.31,164.31,0,0,1-19.14-23.44c-10.75-16.19-18.68-34-26.31-51.86-16-37.43-33.49-78.87-23.52-120.27,4.9-20.4,14.84-39.52,23.32-58.6L171,170.65c1.81-4.08,3.4-8.42,5.78-12.22a12.37,12.37,0,0,1,4.49-4.54c2.57-1.33,5.54-1.07,8.31-.67,5.13.75,10.23,1.74,15.31,2.8q15.28,3.19,30.21,7.9c9.51,3,19.11,6.31,27.31,12.14,8,5.68,14.21,13.45,20.33,21q10.25,12.63,20.45,25.3c24.19,30.12,50.17,61.09,63.15,98a139,139,0,0,1,6.48,26.22c.28,1.9,3.17,1.09,2.9-.8Z" transform="translate(-108.92 -95.17)"/><path class="cls-3" d="M238.73,477.36c-6.49,33.29-8.41,68-.67,101s25.85,64.36,53.62,83.85c5.44,3.81,12.3,7.27,18.47,4.82,3.69-1.47,6.29-4.77,8.51-8.06a99.67,99.67,0,0,0,11.76-23.79c.82-2.41,1.55-5,1.14-7.48-.53-3.24-2.84-5.86-5-8.34C295.4,583.44,279,537.46,256,495.82c-4.12-7.47-9.25-15.45-17.49-17.67" transform="translate(-108.92 -95.17)"/><path class="cls-4" d="M237.28,477a298.58,298.58,0,0,0-5.68,49.33,208.4,208.4,0,0,0,4.34,49.45A162.68,162.68,0,0,0,249.79,615a139.27,139.27,0,0,0,23.5,33.39,120.71,120.71,0,0,0,15.4,13.52c5.54,4.1,12.29,8.47,19.52,7.24s11.57-8.73,15-14.56a101.39,101.39,0,0,0,5.34-10.43A70.79,70.79,0,0,0,332.65,633,12.6,12.6,0,0,0,331,622.48c-2-3-4.62-5.64-6.91-8.43-4.72-5.76-9.1-11.79-13.22-18a387,387,0,0,1-22.11-38.61c-6.83-13.37-13.24-27-20-40.38-3.31-6.64-6.7-13.24-10.25-19.76-3.14-5.79-6.44-11.87-11.53-16.2a21.34,21.34,0,0,0-8.08-4.4,1.5,1.5,0,0,0-.8,2.89c6.12,1.72,10.36,6.76,13.64,11.94,3.71,5.84,6.81,12.11,10,18.25,6.61,12.84,12.8,25.89,19.21,38.84s13,25.8,20.49,38.18a262.43,262.43,0,0,0,25,34.7c2.45,2.88,4.28,5.86,3.51,9.78a54.32,54.32,0,0,1-3.74,10.7,98.7,98.7,0,0,1-5.16,10.28,62.73,62.73,0,0,1-6,9c-2.19,2.61-5,4.78-8.48,5s-6.87-1.06-9.87-2.7c-5.85-3.2-11.16-7.68-16-12.18a131.4,131.4,0,0,1-24.58-31A155.39,155.39,0,0,1,241,583.67a191.25,191.25,0,0,1-6.39-46.21,268.81,268.81,0,0,1,3.52-48q.94-5.87,2.08-11.72c.37-1.88-2.52-2.69-2.89-.79Z" transform="translate(-108.92 -95.17)"/><path class="cls-3" d="M589.33,737.79c21.85,6.65,54.28,15.61,76.13,22.26l25.72,7.83c3.89,1.18,8.05,2.37,12,1.26,4.88-1.39,8.09-6,10.58-10.39C725,738.6,730,715.19,729.49,692.08s-6.33-45.91-15.38-67.17c-10.22-24-26.49-47.77-51.27-55.95-13.14-4.33-29-3-42.58-2a178.26,178.26,0,0,0-22.46,2.91c-2.62.54-5.95.93-8.35,2.16-3.77,1.94-6.77,7.06-9.11,10.6A93.49,93.49,0,0,0,566.85,617c-3.1,16.65-2.32,33.84.32,50.57a70,70,0,0,0,2.24,10.24c1.08,3.36,2.59,6.57,3.79,9.89,4,11.1,5.94,23.16,10,33.86,1.94,5.05,2.63,9.76,5.7,14.42.57.86,1.11,2.56.39,1.83" transform="translate(-108.92 -95.17)"/><path class="cls-4" d="M588.93,739.24c17.62,5.35,35.36,10.32,53,15.44q13,3.77,25.94,7.69l16.2,4.92c2.75.84,5.49,1.71,8.25,2.51a25.32,25.32,0,0,0,8,1.27c9.79-.42,14.63-11,18.26-18.62a126.12,126.12,0,0,0,9.53-28.76c4.18-20.53,3.49-41.75-.83-62.2a196.22,196.22,0,0,0-9.26-30.73,169.46,169.46,0,0,0-12-25.07c-8.75-14.76-20.71-28.49-36.6-35.7-8.87-4-18.36-5.44-28-5.52a248.38,248.38,0,0,0-31.07,1.94C605.14,567,600,568,594.73,569a20.21,20.21,0,0,0-6.32,2,16.85,16.85,0,0,0-4.64,4.18,85.37,85.37,0,0,0-7.5,11.32,90.74,90.74,0,0,0-6.45,14c-7.51,20.49-7.64,42.82-4.6,64.19a75.37,75.37,0,0,0,3.58,16c1.87,5,3.86,9.84,5.35,15s2.75,10.42,4.19,15.61c1.36,4.92,3.2,9.65,4.73,14.51.72,2.27,1.4,4.55,2.32,6.75a26.72,26.72,0,0,0,1.54,3.13c.29.52.66,1,.93,1.53a4,4,0,0,0,.19.43c.16.24,0,.66.16,0l.69-.89-.07,0,1.16-.15.4.21c-1.45-1.26-3.58.85-2.12,2.12,1.66,1.44,3.31-.13,2.72-2a10.77,10.77,0,0,0-1.24-2.41,23.6,23.6,0,0,1-1.77-3.56c-.9-2.22-1.54-4.54-2.28-6.82s-1.73-4.74-2.51-7.14c-3.25-9.92-5.08-20.26-8.71-30.06-1.84-5-4-9.75-5-15a160.22,160.22,0,0,1-2.32-16.32,142,142,0,0,1,.32-32.9A98.33,98.33,0,0,1,576,593.41a105.26,105.26,0,0,1,7.17-12.33c2.25-3.43,4.72-7.15,8.83-8.41,2.17-.67,4.45-1,6.68-1.42q4-.79,8.08-1.37c5.3-.75,10.65-1.18,16-1.58,9.86-.74,19.86-1.44,29.7-.13,17.6,2.34,32.11,13.14,42.83,26.83,11.43,14.59,19.06,32.17,24.58,49.74,6.23,19.82,9.34,40.7,7.76,61.48A132.12,132.12,0,0,1,722,735.71a118.92,118.92,0,0,1-5.37,14,72.53,72.53,0,0,1-6.82,12.4c-2.76,3.79-6.41,6.28-11.26,5.89a38.15,38.15,0,0,1-7.93-1.89l-8.09-2.46c-9.38-2.86-18.74-5.73-28.14-8.5-17.71-5.21-35.49-10.2-53.2-15.41q-5.73-1.69-11.46-3.43c-1.85-.56-2.64,2.34-.8,2.9Z" transform="translate(-108.92 -95.17)"/><path class="cls-3" d="M588.94,572.28c-5.86,3-9.56,8.94-12.48,14.84A122.49,122.49,0,0,0,569,675.56c2.46,8.21,4.39,18.09,7.71,26,4.66,11.11,7.24,25.58,11.9,36.69" transform="translate(-108.92 -95.17)"/><path class="cls-4" d="M588.19,571c-4.74,2.47-8.16,6.7-10.82,11.24a100,100,0,0,0-7.15,15.61,124.36,124.36,0,0,0-4.78,70c1.27,5.72,3.06,11.33,4.53,17a130,130,0,0,0,5.22,17c4.95,12,7,24.92,12,36.88A1.56,1.56,0,0,0,589,739.7a1.51,1.51,0,0,0,1.05-1.85c-4.36-10.47-6.46-21.71-10.25-32.38-.91-2.56-2-5.05-2.93-7.61-1-2.73-1.79-5.51-2.55-8.31-1.53-5.55-3-11.12-4.54-16.68a121.29,121.29,0,0,1,1.34-68.51,112.9,112.9,0,0,1,7.32-17.87c2.65-5.13,6-10.17,11.24-12.91,1.71-.9.2-3.49-1.51-2.59Z" transform="translate(-108.92 -95.17)"/><path class="cls-3" d="M696.14,595c23.51.62,49-2.48,68.71,10.34a96.26,96.26,0,0,1,12.73,10.54c12.29,11.4,24.79,23.07,32.89,37.75,5.38,9.78,8.64,20.56,11.57,31.33,5.28,19.38,9.68,39.54,6.93,59.44s-14,39.69-32.4,47.7c-12.13,5.28-26,5-39,2.85-16.76-2.73-33.67-8.67-46.59-20-1.5-1.32-3.52-2.82-4.62-4.5-1.58-2.42-.71-2.8.9-5.25,2.65-4,5.12-8.16,7.39-12.4a157.87,157.87,0,0,0,11.46-27.19,85.52,85.52,0,0,0,3.51-15,118.1,118.1,0,0,0,.4-18.24,262,262,0,0,0-1.77-27.45,133.2,133.2,0,0,0-32.28-70.27" transform="translate(-108.92 -95.17)"/><path class="cls-4" d="M696.14,596.52c17.66.45,35.94-1.39,53.15,3.51a56,56,0,0,1,12,4.94,65.3,65.3,0,0,1,11.48,8.56c7.07,6.35,14.06,12.87,20.56,19.81a104,104,0,0,1,16.58,22.48c4.61,8.77,7.55,18.28,10.18,27.79,5.43,19.68,10.33,40.45,7.33,61-2.28,15.57-9.67,31.33-22.49,40.93-15.16,11.36-35,10.66-52.73,7a101,101,0,0,1-25.68-8.79,74.21,74.21,0,0,1-11.27-7.11c-1.75-1.34-3.42-2.8-5.09-4.24-1-.85-3.64-2.84-3-4.33a16,16,0,0,1,1.62-2.43c.73-1.1,1.44-2.22,2.13-3.34q2-3.27,3.89-6.63,3.65-6.55,6.65-13.43c4-9.21,7.61-18.94,9.25-28.88,1.71-10.35.89-21.1.42-31.52a161.91,161.91,0,0,0-3.62-29.19,135,135,0,0,0-22.28-48.82q-3.87-5.31-8.22-10.21c-1.29-1.45-3.4.68-2.13,2.12a131.4,131.4,0,0,1,32.58,75.8c.49,5.39.72,10.79.9,16.19s.43,11,.24,16.52c-.38,10.49-3.45,20.59-7.21,30.33a157.51,157.51,0,0,1-13.92,27.59c-.66,1-1.33,2.08-2,3.09a7.78,7.78,0,0,0-1.32,2.37c-.49,1.94.9,3.83,2.14,5.18a49.26,49.26,0,0,0,5.08,4.49c1.75,1.46,3.58,2.84,5.47,4.14a89.27,89.27,0,0,0,24.89,11.54,118.92,118.92,0,0,0,27.88,4.9c9.74.49,19.67-.66,28.6-4.76,15-6.89,25.05-21.52,29.76-37,5.86-19.18,3.27-39.77-1.23-58.94a265.59,265.59,0,0,0-8.46-29.68,95.93,95.93,0,0,0-13.83-25.74,179.2,179.2,0,0,0-19.57-21.1c-7-6.64-14-13.85-22.55-18.53-16.06-8.8-35.08-8.54-52.87-8.48-4.43,0-8.85,0-13.28-.09-1.93,0-1.93,3,0,3Z" transform="translate(-108.92 -95.17)"/><path class="cls-3" d="M494.79,747.3c3.74-.18,7.49-.42,11.23-.7,21.81-1.66,43.43-5.18,65.21-7.14q4.42-.39,8.87-.71c1.91-.13,6.28.48,7.89-.37,2.49-1.31-1.89-10.57-2.85-13.56-3.67-11.37-7.46-22.71-11.74-33.89a112.69,112.69,0,0,1-3.9-11.17,100.16,100.16,0,0,1-2.38-14.64c-.64-5.71-1.28-11.43-1.53-17.17a124.6,124.6,0,0,1,7.32-47.55c2.09-5.75,5-11.27,6.89-17.08,1.6-4.82-1.08-6.91-4.63-10.07-7-6.21-15.88-9.22-24.79-11.45-12.4-3.1-25.34-3.22-38.11-2.89-23.67.61-48.47,3.09-68.13,16.28-24.82,16.66-36.82,48.61-34,78.37S429,710.69,450,731.93c4.94,5,10.29,9.78,16.75,12.51C475.5,748.14,485.33,747.75,494.79,747.3Z" transform="translate(-108.92 -95.17)"/><path class="cls-4" d="M494.79,748.8c24.38-1.18,48.48-5.12,72.75-7.49a123.25,123.25,0,0,1,15.94-1c1.68,0,3.88.24,5.38-.71a3.74,3.74,0,0,0,1.36-3.59c-.26-3.36-1.74-6.61-3-9.72-1.83-4.73-3.21-9.66-4.83-14.48-1.93-5.74-3.93-11.46-6-17.14-2-5.52-4.44-11-5.8-16.71a141.22,141.22,0,0,1-2.52-17.75,164.93,164.93,0,0,1-1.1-17.91A123.76,123.76,0,0,1,572,608a149.09,149.09,0,0,1,6.17-16.4,71.41,71.41,0,0,0,3.19-8.23,8.13,8.13,0,0,0-.38-5.9,16.46,16.46,0,0,0-4.17-4.71,44.92,44.92,0,0,0-6.1-4.63A59.62,59.62,0,0,0,556.63,562c-11.08-3.37-22.5-4.58-34-4.67a277.25,277.25,0,0,0-32.73,1.52,122.69,122.69,0,0,0-30.22,6.8,76.61,76.61,0,0,0-24.9,15.11,78.18,78.18,0,0,0-16.22,21.48,93.45,93.45,0,0,0-9.61,53.6c2.38,20.15,10.62,39.21,22.18,55.78a160.13,160.13,0,0,0,19.72,23.23,56.53,56.53,0,0,0,12.51,9.64,40.68,40.68,0,0,0,15.42,4.34,114.63,114.63,0,0,0,16.05,0c1.92-.09,1.93-3.09,0-3-10.55.5-21.62.91-31.08-4.57a59.85,59.85,0,0,1-12-9.75q-5.25-5.24-10-10.93c-12.54-15-22.47-32.52-27.31-51.54a94.16,94.16,0,0,1,1.8-53.8c5.75-16.76,16.72-31.73,32.07-40.85,17.43-10.36,38.2-12.94,58.1-13.75,11.2-.46,22.54-.71,33.68.76a98.21,98.21,0,0,1,16,3.55,54.61,54.61,0,0,1,13.7,6.08,44.24,44.24,0,0,1,5.8,4.58c1.28,1.16,2.78,2.46,3.15,4.23.48,2.26-.9,4.83-1.7,6.87-1.06,2.67-2.24,5.28-3.35,7.92A122.59,122.59,0,0,0,565,626.85c-1.48,11.47-1.07,22.88.17,34.35a146.9,146.9,0,0,0,2.42,17.1c1.28,5.6,3.56,10.89,5.57,16.25q3.09,8.3,5.91,16.67c1.69,5,3.13,10.1,5,15,1.11,3,2.51,6,3.07,9.14a6.76,6.76,0,0,1,.09,1.62s-.24.26,0,.11-.18,0,0,0-.27,0-.36.06a38.62,38.62,0,0,1-5.59,0c-2.59,0-5.22.31-7.8.53q-4.29.38-8.6.81c-5.88.6-11.76,1.3-17.64,2-11.75,1.43-23.49,2.95-35.28,4q-8.55.76-17.13,1.19C492.86,745.89,492.85,748.89,494.79,748.8Z" transform="translate(-108.92 -95.17)"/><path class="cls-3" d="M430.72,583.1c-23.33-10-46.17-7.84-70,.85-4.9,1.79-12.17,4.5-16.53,7.36C332.38,599,326.43,608.4,322,621.91c-4,12.09-4.85,26-5.29,38.75-.34,9.87,2,21.2,4.33,30.79,5.46,22.36,16.2,40.6,32.64,56.71L373,759.61c4.18,2.12,9.08,3.84,12.67,5.52,6.47,3,11.69,3.33,18.68,1.83,15.61-3.36,23.36-5.42,38-11.68,3.73-1.59,12.83-5.36,16.51-7.08,3.33-1.56,7.59-2,3.86-5-6.24-5.13-15.83-13.63-20.14-19.26-15.2-19.82-26.77-42.38-32-66.8s7.07-52.24,19.64-73.82" transform="translate(-108.92 -95.17)"/><path class="cls-4" d="M431.48,581.81A84,84,0,0,0,398.83,575a107.07,107.07,0,0,0-33,5.62c-9.21,3-18.71,6.3-26.44,12.28a52,52,0,0,0-15.49,19.84,96.42,96.42,0,0,0-7.58,29.68c-1.17,10.82-1.75,21.77-.19,32.57,2.86,19.65,9.14,38.89,20.45,55.33a121.59,121.59,0,0,0,8.86,11.37c1.64,1.88,3.34,3.72,5.09,5.5a15.76,15.76,0,0,0,2.64,2.46c4.16,2.58,8.44,5,12.65,7.48l5.65,3.34a69.29,69.29,0,0,0,9,4.09c4.58,1.88,8.9,4.13,13.89,4.65,5.2.55,10.33-.77,15.36-1.9a176.77,176.77,0,0,0,26.29-7.81c7.58-3,15.13-6.17,22.55-9.52,1.66-.75,3.44-1.29,5.07-2.12s2.54-2.28,1.67-4-3-2.93-4.41-4.17q-2.61-2.22-5.16-4.51a128.54,128.54,0,0,1-9.86-9.67,107.45,107.45,0,0,1-8.63-11.5c-11.81-17.35-20.9-36.74-25.27-57.33-4.32-20.33,3.36-41.56,12.37-59.55,2.22-4.45,4.62-8.81,7.12-13.12a1.5,1.5,0,0,0-2.59-1.51c-10.1,17.37-19.19,36.53-20.85,56.82a64.47,64.47,0,0,0,.41,14.56A103.21,103.21,0,0,0,412,668.6a162.26,162.26,0,0,0,11.52,28.25A188.35,188.35,0,0,0,440,723c5.29,7,11.88,13,18.56,18.66l2.25,1.9a9.21,9.21,0,0,1,1.89,1.72c-.27-.43.39-.28-.19-.15a6.79,6.79,0,0,0-.9.44c-1,.41-2,.74-3,1.17-3.33,1.45-6.64,2.93-10,4.35-7.84,3.31-15.65,6.71-23.78,9.26-4.17,1.3-8.39,2.38-12.63,3.37-4.91,1.15-10,2.63-15.05,2.67a23.32,23.32,0,0,1-7-1.06c-2.37-.74-4.59-1.87-6.88-2.83a84.27,84.27,0,0,1-9.86-4.35c-4.19-2.42-8.32-4.93-12.48-7.39l-5.66-3.35a4.38,4.38,0,0,1-1.13-.84c-1.62-1.74-3.34-3.39-4.94-5.16a115,115,0,0,1-26.42-49.11c-2.57-10.12-4.87-20.66-4.6-31.16.28-10.68.94-21.51,3.35-31.94,2-8.63,5.27-17.3,10.51-24.5a48.46,48.46,0,0,1,20.05-15.72c19.4-8.44,41.21-13.68,62.29-9.39A82.18,82.18,0,0,1,430,584.4a1.56,1.56,0,0,0,2-.54,1.5,1.5,0,0,0-.54-2.05Z" transform="translate(-108.92 -95.17)"/><path class="cls-3" d="M318.55,678.5c-9.41-78.28,30.75-86.42,27-89.4h.05a69.11,69.11,0,0,0-13.6,1.31c-18.09,3.15-35.07,13.11-46.11,27.86-10.25,13.7-15.34,30.62-18,47.53-3.72,23.85-2.65,49.42,9.09,70.52,7.45,13.39,17,26.47,28.05,37,5.18,5,12.47,7.79,19.44,9.45,4,.94,8.17.66,12.25.24A199.7,199.7,0,0,0,375,774.75q9.34-2.89,18.45-6.52C399.15,766,328.71,762.9,318.55,678.5Z" transform="translate(-108.92 -95.17)"/><path class="cls-4" d="M320.05,678.5c-1.51-12.73-2.06-25.68-.52-38.44a83,83,0,0,1,6.64-24.82,55.68,55.68,0,0,1,9.58-14.59,53.87,53.87,0,0,1,4.56-4.38c.66-.56,1.33-1.11,2-1.64l.45-.36.21-.16.81-.62c1.34-1,4.43-2.81,3.21-4.93a2,2,0,0,0-.43-.52l-1.46,2.51h.05l.4-2.95a74.72,74.72,0,0,0-16.11,1.76,76.95,76.95,0,0,0-36.28,18.57c-14.76,13.65-22.23,33-25.87,52.36-3.69,19.69-4.4,40.58,1.35,60,2.88,9.73,7.66,18.57,13.16,27a153.5,153.5,0,0,0,19.47,24.51,41,41,0,0,0,11.83,8.72,45.89,45.89,0,0,0,14.13,4.25c5.46.59,11.12-.32,16.51-1.12,5.61-.83,11.18-2,16.69-3.3a247.47,247.47,0,0,0,32.12-10.17c1.06-.42,2.77-.78,2.75-2.26a2,2,0,0,0-1.24-1.68,26.13,26.13,0,0,0-4.48-1.48c-2.51-.75-5-1.55-7.47-2.43a97.36,97.36,0,0,1-21.07-10.57,86.51,86.51,0,0,1-22.65-22.13c-8.15-11.61-13.36-25-16.3-38.8-.86-4.08-1.54-8.21-2.05-12.35-.23-1.9-3.23-1.92-3,0,1.83,15,5.74,29.79,12.91,43.15a90.9,90.9,0,0,0,21.26,26.45,94.44,94.44,0,0,0,22.3,14A131.19,131.19,0,0,0,389.8,768c.73.22,1.47.44,2.19.68l.73.26c-.75-.27.15,0,.13.1s-.28-.27-.16-.12a1.31,1.31,0,0,1-.35-1.12,1.59,1.59,0,0,1,.34-.75c.17-.22.31-.31.14-.13s-.1-.16.12,0l.15-.06-.66.26-2,.79c-1.34.52-2.68,1-4,1.51q-3.81,1.39-7.67,2.66A225.47,225.47,0,0,1,347,780.13,97.56,97.56,0,0,1,330.54,782a37.85,37.85,0,0,1-14.36-3.32,36.18,36.18,0,0,1-11.84-8,136,136,0,0,1-10.23-11.37,155.78,155.78,0,0,1-16.77-25.39c-9.18-17.53-11-37.93-9.29-57.38s6.48-39.59,17.83-55.71c10.41-14.78,26.73-24.91,44.37-28.52a71.07,71.07,0,0,1,15.31-1.65,1.5,1.5,0,0,0,.4-2.94l0,0c-1.33-.3-2.71,1.5-1.46,2.51.32.26-.15-.3,0,0a1.06,1.06,0,0,1-.12-.85c-.07.3.21-.45,0,0-.06.12.3-.27-.05,0s-.6.55-.92.81l-.27.22c-.34.27.06,0-.07.05l-.72.55a66.37,66.37,0,0,0-8.37,7.33,57.5,57.5,0,0,0-9.76,14.3,82.9,82.9,0,0,0-7.15,24,150.9,150.9,0,0,0-.55,36.29c.18,1.89.38,3.77.6,5.66S320.28,680.41,320.05,678.5Z" transform="translate(-108.92 -95.17)"/><path class="cls-5" d="M361.88,1548.59a57.07,57.07,0,0,0,37-4.45,181.21,181.21,0,0,0,8.39,23.3c3.42,7.79,7.64,15.64,14.62,20.48,5.11,3.54,11.91,5.81,14.09,11.63,2.41,6.42-2.33,13.22-7.31,18-11.06,10.52-24.56,18.06-37.9,25.49l-26.14,14.56c-12.3,6.85-24.71,13.75-38.14,18a104.6,104.6,0,0,1-66.23-1.38c-8.55-3.08-17.29-7.9-21-16.2-2-4.46-2.28-9.5-1.85-14.36,2-23,20-42.28,40.91-52S323,1580,346.08,1579.26c14.39-.44,29.16-.45,42.69,4.47C379.58,1572.68,371.08,1559.64,361.88,1548.59Z" transform="translate(-108.92 -95.17)"/><path class="cls-5" d="M361.49,1550a59.17,59.17,0,0,0,38.15-4.61l-2.21-.89a184.59,184.59,0,0,0,9,24.76c3,6.71,6.73,13.48,12.48,18.24a66.68,66.68,0,0,0,8.55,5.52c2.65,1.59,5.4,3.44,6.79,6.31,3.54,7.32-4,14.79-8.95,19.17-12.61,11.22-27.86,19-42.5,27.16-8,4.46-16,9-24,13.37a226.38,226.38,0,0,1-23.35,11.6,105.21,105.21,0,0,1-49.59,7.63,102.29,102.29,0,0,1-24.57-5.38c-6.49-2.29-13.08-5.45-17.62-10.79-5.14-6.06-5.57-14.28-4.33-21.82a53.91,53.91,0,0,1,7.1-19c7.17-11.93,18.27-21.31,30.65-27.49,14.94-7.46,31.72-10.52,48.22-11.94,8.44-.72,16.91-1.06,25.37-1.23s17.12-.07,25.54,1.37a72.57,72.57,0,0,1,12.15,3.16c1.55.56,2.32-1.47,1.46-2.5-9.42-11.36-17.46-23.78-26.89-35.14-1.23-1.49-3.34.65-2.12,2.12,9.43,11.36,17.47,23.78,26.89,35.14l1.46-2.51c-16.7-6-35.13-5-52.57-4.16-17.23.85-34.7,2.79-51,8.8-14,5.16-26.91,13.49-36.34,25.18a63,63,0,0,0-10.43,18.24c-2.55,7.07-3.88,15-2.62,22.5,2.73,16.3,20.77,22.76,34.83,26.06a106.5,106.5,0,0,0,51.3-.63c17.5-4.61,33.24-14,48.92-22.7,8.24-4.59,16.5-9.16,24.73-13.78a231.55,231.55,0,0,0,21.77-13.45,116.18,116.18,0,0,0,10-8,38.53,38.53,0,0,0,7.94-9.19c1.89-3.28,3-7.13,2.06-10.89-.82-3.35-3.14-5.91-5.85-7.91s-5.87-3.48-8.71-5.37a30.78,30.78,0,0,1-8-8c-4.78-6.8-7.92-14.82-10.76-22.58q-2.29-6.27-4.12-12.69a1.53,1.53,0,0,0-2.21-.9,55.74,55.74,0,0,1-35.84,4.31C360.4,1546.74,359.6,1549.63,361.49,1550Z" transform="translate(-108.92 -95.17)"/><path class="cls-5" d="M786.4,1528.59a57.05,57.05,0,0,1-36.71,6.42,182.7,182.7,0,0,1-1.3,24.74c-1,8.43-2.8,17.17-8.08,23.82-3.87,4.87-9.73,9-10.14,15.21-.45,6.84,6.06,12,12.18,15.07,13.64,6.88,28.74,10.2,43.65,13.46l29.24,6.39c13.75,3,27.62,6,41.7,6.18a104.53,104.53,0,0,0,63-20.44c7.3-5.42,14.27-12.56,15.41-21.57.61-4.84-.56-9.76-2.38-14.29-8.6-21.44-31.32-34.71-54.2-38s-46.07,1.8-68.39,7.79c-13.91,3.74-28,8-39.59,16.61C776.41,1556.76,780.79,1541.82,786.4,1528.59Z" transform="translate(-108.92 -95.17)"/><path class="cls-5" d="M785.64,1527.29a55.72,55.72,0,0,1-35.55,6.27,1.54,1.54,0,0,0-1.9,1.45,169.44,169.44,0,0,1-1.75,28c-1.19,7.75-3.39,15.34-8.72,21.28-4.49,5-10.38,10.19-8.79,17.65,1.52,7.13,8.86,11.43,14.93,14.29,16.21,7.64,34.1,10.84,51.49,14.64,9.26,2,18.52,4.1,27.8,6a201.2,201.2,0,0,0,27.49,4.19,106.64,106.64,0,0,0,48.82-8.26,103.28,103.28,0,0,0,21.25-12.14c6-4.47,11.73-9.87,14.61-16.93,3.19-7.79,1.3-16.12-2.13-23.49a55.61,55.61,0,0,0-12.2-16.69c-10.26-9.72-23.66-16-37.46-18.73-17.72-3.54-36.06-1.54-53.58,2.17-8.82,1.86-17.56,4.13-26.23,6.61a130.93,130.93,0,0,0-23.43,8.73,71.7,71.7,0,0,0-10.25,6.3l2.06,2c5.74-13.59,9.85-27.81,15.59-41.4a1.57,1.57,0,0,0-.53-2.06,1.53,1.53,0,0,0-2.06.54c-5.74,13.6-9.85,27.81-15.59,41.41-.5,1.18.68,3.06,2,2,13.17-9.77,29.42-14,45.06-18,17.31-4.45,35.13-8,53.09-7.08,14.38.75,28.55,4.76,40.61,12.76a59.11,59.11,0,0,1,14.79,13.73c4.3,5.73,8,12.74,8.77,19.94.85,7.75-2.79,14.46-8.1,19.83s-12.07,9.81-18.8,13.46a103.26,103.26,0,0,1-45.56,12.41c-17.91.59-35.49-3.84-52.85-7.63-9-2-17.92-3.89-26.87-5.88a237.48,237.48,0,0,1-24.6-6.51,106.63,106.63,0,0,1-11.93-4.76,36,36,0,0,1-9-5.61c-2.37-2.15-4.43-5-4.51-8.28s1.83-6.19,3.94-8.63,4.75-4.91,6.75-7.69a35.31,35.31,0,0,0,4.93-10.23c2.48-7.92,3.16-16.49,3.64-24.73.26-4.45.34-8.92.28-13.38l-1.9,1.45a59.23,59.23,0,0,0,37.87-6.57C788.85,1529,787.33,1526.36,785.64,1527.29Z" transform="translate(-108.92 -95.17)"/><path class="cls-6" d="M590.93,1275.69c8-10.54,27.94-78.59,32.16-91.12-21.6-12.67-45-22.7-70-23.17-16.92-.32-33.75,2.29-50.37,5.49-10.19,2-22,7.23-31.07,12.27,2.57,14.33,6.7,27.53,11.32,41.34,6.12,18.29,13.37,36.56,25.37,51.65s29.43,28.95,48.69,28c10.1-.5,22.24-7,33.93-24.46" transform="translate(-108.92 -95.17)"/><path class="cls-7" d="M592.22,1276.45c2.67-3.56,4.28-8.06,5.93-12.13,2.68-6.61,5.06-13.33,7.37-20.06,5-14.61,9.63-29.36,14.22-44.1,1.58-5.07,3.1-10.16,4.8-15.19a1.51,1.51,0,0,0-.69-1.69c-17.5-10.25-36.38-19-56.57-22.11a133.75,133.75,0,0,0-32.24-.6,298.92,298.92,0,0,0-33.14,5c-10.89,2.19-21.36,7-31,12.34a1.54,1.54,0,0,0-.69,1.7c2.74,15.24,7.43,30,12.44,44.67,4.68,13.64,10.09,27.19,17.83,39.42,7.2,11.38,16.55,21.86,27.88,29.27,9.78,6.4,22.21,10.71,33.94,8,13-3,22.81-13.81,30-24.46,1.08-1.61-1.52-3.11-2.59-1.52-6.31,9.42-14.73,18.92-25.88,22.46-10.63,3.37-22.26-.06-31.53-5.58-11.11-6.6-20.35-16.46-27.52-27.12-7.84-11.68-13.36-24.72-18-37.94-5.53-15.66-10.65-31.62-13.6-48l-.69,1.69c8.56-4.73,17.62-8.88,27.13-11.31,5-1.28,10.23-2.08,15.36-2.94,5.49-.91,11-1.71,16.53-2.28,10.53-1.1,21.25-1.58,31.79-.31a122,122,0,0,1,28.87,7.39,201.72,201.72,0,0,1,30.27,14.87l-.69-1.7c-3.7,11-6.94,22.18-10.46,33.25-4.66,14.67-9.35,29.37-15,43.71-1.1,2.82-2.25,5.63-3.54,8.37a31.06,31.06,0,0,1-3,5.43c-1.16,1.55,1.45,3,2.59,1.52Z" transform="translate(-108.92 -95.17)"/><ellipse class="cls-8" cx="280.32" cy="929.85" rx="29.45" ry="61.85"/><ellipse class="cls-8" cx="679.43" cy="1007.81" rx="29.45" ry="61.85" transform="translate(-251.35 17.18) rotate(-8.56)"/><circle class="cls-9" cx="293.27" cy="953.7" r="10.35"/><circle class="cls-9" cx="585.38" cy="947.07" r="10.35"/><circle class="cls-9" cx="266.37" cy="893.28" r="4.56"/><circle class="cls-9" cx="548.19" cy="888.72" r="4.56"/><path class="cls-10" d="M488.45,1229.6c1.2-9.26,5.32-20.47,16.52-27.12a86.07,86.07,0,0,1,80.28-4.24,40,40,0,0,1,10.35,6.42,31.69,31.69,0,0,1,10.27,23c.12,28.29-17.12,52.64-24.26,58.91a77.59,77.59,0,0,1-12.55,9,27.05,27.05,0,0,1-12.88,2.85c-11.61,0-22.76-5.26-31.76-12.6a104.41,104.41,0,0,1-21.6-23.39c-2-2.84-5-8.58-6.64-11.64C492.61,1244.12,488.61,1237.22,488.45,1229.6Z" transform="translate(-108.92 -95.17)"/><path class="cls-7" d="M490,1229.6c1.29-9.71,5.8-19.14,14.08-24.75a74,74,0,0,1,16.32-8,83.92,83.92,0,0,1,53.32-1.38,68.8,68.8,0,0,1,17,7.36,29.39,29.39,0,0,1,11.24,13.23c2.37,5.49,2.7,11.25,2.27,17.14a78.5,78.5,0,0,1-3.34,17.31,94.46,94.46,0,0,1-13,26.54,55.88,55.88,0,0,1-6.11,7.43,62.11,62.11,0,0,1-12,9.06c-10.78,6.41-24.79,3.15-35.14-2.56a77.43,77.43,0,0,1-14.54-10.81,101.15,101.15,0,0,1-11.46-12.31,98,98,0,0,1-8.91-13.64c-2.78-5.1-5.82-10.22-7.84-15.68a28.23,28.23,0,0,1-1.89-8.93c-.06-1.92-3.06-1.93-3,0,.21,6.81,3.14,13,6.27,18.89,2.53,4.77,4.95,9.68,7.92,14.19a104.5,104.5,0,0,0,25.19,26.56c10.17,7.46,23.27,12.44,36,10.22,6.29-1.1,11.5-4.76,16.44-8.6a49.32,49.32,0,0,0,8.14-7.74,93.65,93.65,0,0,0,14.32-24.77,87.25,87.25,0,0,0,5-17.37c1-6,1.69-12.38.71-18.44a33.33,33.33,0,0,0-7.75-16.39c-4.26-4.88-10-7.92-15.88-10.4a87.45,87.45,0,0,0-74,2.64c-5.36,2.73-10.38,5.92-14.16,10.68a38.68,38.68,0,0,0-6.88,13.84,51,51,0,0,0-1.3,6.69,1.51,1.51,0,0,0,1.5,1.5A1.53,1.53,0,0,0,490,1229.6Z" transform="translate(-108.92 -95.17)"/><path class="cls-11" d="M1222.16,1222.94c-6.44-41.22-24-79.71-38.77-118.74-14.58-38.59-26.48-78.11-38.38-117.6-2.45-8.15-4.92-16.42-5.11-24.93-.16-7.35,1.39-14.63,2.72-21.86a377.09,377.09,0,0,0,4.49-104.72c-.32-3.28-1.34-7.34-4.58-8-11.6,19.14-13.31,42.62-12.55,65,.44,13.12,1.14,27.76-7.52,37.62-2.22-13.23-5.75-28.33-17.7-34.41q13.66,52.59,29,104.74-19.71-16.65-40.86-31.5c-6.19-4.35-13.4-8.78-20.81-7.23l36.7,33.16c11.87,10.72,23.9,21.64,32.31,35.25,17.86,28.94,17.05,66,32.74,96.22,3.81,7.33,8.56,14.17,12.1,21.64,6.22,13.14,8.46,27.74,12.41,41.72S1210.41,1214.38,1222.16,1222.94Z" transform="translate(-108.92 -95.17)"/><path class="cls-12" d="M1223.6,1222.54c-4.13-26.2-12.72-51.39-22.18-76.09-9.69-25.34-19.83-50.45-28.56-76.14-9-26.49-17.11-53.26-25.17-80-2-6.51-4.08-13-5.32-19.7a60.83,60.83,0,0,1,0-21c1.08-6.8,2.5-13.55,3.55-20.36s1.89-13.44,2.56-20.19a376.26,376.26,0,0,0,1.86-41.38q-.11-10.36-.78-20.71-.33-5.18-.81-10.33a21.67,21.67,0,0,0-1.45-7,6.61,6.61,0,0,0-4.38-3.93,1.53,1.53,0,0,0-1.69.69c-7.3,12.17-10.78,26-12.15,40.07a183.89,183.89,0,0,0-.72,21.64c.13,6.7.6,13.41.15,20.11-.49,7.34-2.23,14.78-7.12,20.49l2.51.66c-2.2-13-5.62-28.61-18.4-35.3a1.52,1.52,0,0,0-2.2,1.69q10.64,40.86,22.24,81.46,3.33,11.65,6.75,23.28l2.5-1.46q-15.08-12.74-31-24.43a177.62,177.62,0,0,0-15.75-10.94c-5-2.91-10.54-4.83-16.38-3.75a1.52,1.52,0,0,0-.67,2.51l26.22,23.68c8,7.21,16.09,14.29,23.77,21.82,7.32,7.17,14.18,14.89,19.46,23.72a118.26,118.26,0,0,1,11.32,26.93c5.52,18.43,8.4,37.63,15.21,55.68,3.63,9.6,8.83,18.17,13.89,27,5.34,9.35,8.65,19.29,11.27,29.7,2.68,10.64,4.61,21.68,9.83,31.45a66,66,0,0,0,19.42,21.84c1.56,1.14,3.06-1.46,1.51-2.59a62.93,62.93,0,0,1-17.92-20c-4.81-8.7-6.75-18.48-9.09-28-2.46-10.09-5.19-20.15-10-29.42s-10.75-17.8-14.73-27.5c-7.29-17.75-10.28-36.84-15.43-55.24a139.22,139.22,0,0,0-10-26.6A107.17,107.17,0,0,0,1128,1010.7c-8.1-8.53-17-16.26-25.75-24.14l-29.13-26.31-.66,2.51c5.85-1.09,11.39,1.67,16.18,4.73,5.12,3.26,10,7,14.87,10.55q15,11.06,29.16,23.06a1.51,1.51,0,0,0,2.51-1.46q-11.89-40.51-22.81-81.3-3.12-11.7-6.18-23.43l-2.2,1.69c12,6.29,15,21.3,17,33.5a1.51,1.51,0,0,0,2.51.67c8.73-10.18,8.45-24.21,8-36.85-.49-14.51-.26-29.16,3.17-43.34a81,81,0,0,1,9.12-22.72l-1.69.69c2.43.63,3.06,3.56,3.37,5.73.46,3.17.62,6.41.85,9.61q.77,10.33,1,20.7a380.12,380.12,0,0,1-1.45,40.63c-1.24,13.78-3.53,27.33-5.93,40.94-1.14,6.49-2,13-1.27,19.62a104.8,104.8,0,0,0,4.26,19.06c7.84,26.28,15.8,52.54,24.46,78.57,8.49,25.52,18.19,50.52,27.95,75.57,9.48,24.3,18.54,48.94,23.64,74.59.65,3.25,1.23,6.5,1.74,9.77C1221,1225.24,1223.9,1224.44,1223.6,1222.54Z" transform="translate(-108.92 -95.17)"/><path class="cls-13" d="M1065.67,833.52c.73-.76,2-.47,3-.52a5.57,5.57,0,0,0,4.33-3.12,16.41,16.41,0,0,0,1.45-5.35l7.43,3.32c1.34.6,3,1.17,4.18.27s1.15-2.65,2.3-3.43a3.94,3.94,0,0,1,2.86-.27,94.71,94.71,0,0,0,17.8,1c4.81-.19,9.84-.71,14.22,1.28l-5,2.37a10.36,10.36,0,0,0-3.09,1.92c-1.63,1.65-2,4.14-2.6,6.38a21.05,21.05,0,0,1-5,8.81c-2.33,2.43-5.29,4.35-6.93,7.3a8.56,8.56,0,0,1-1.14,1.82c-2.47,2.58-7.5-.57-10.23,1.75-.65.55-1.07,1.35-1.75,1.86-1.31,1-3.15.63-4.74.22l-10-2.55c1.29,6.08,7.25,9.82,12.68,12.85l19.13,10.7a4.67,4.67,0,0,0,2.1.75,4.25,4.25,0,0,0,2.79-1.42c2.93-2.67,5.29-5.91,8.16-8.65s6.48-5,10.45-5.12c.91,0,2,0,2.5-.76s.08-1.69-.11-2.55c-.74-3.44,2.25-6.45,5-8.65s5.83-5,5.39-8.5c.18,10.1,1.48,17.46,3,27.44.54,3.55,1.41,7.49,4.42,9.45,1.24.82,2.77,1.23,3.77,2.32,2.16,2.36,1,6.93,3.78,8.55,1.88,1.1,4.27,0,6.43.24s3.65,1.69,5.5,2.53c2.54,1.15,5.45,1.16,8.23,1,5.09-.38,10.25-1.45,14.55-4.18s7.65-7.33,7.87-12.42c.3-7.31-5.56-13.39-11.66-17.42-2.59-1.72-5.39-3.33-7.14-5.9s-2.06-6.47.28-8.52a29.53,29.53,0,0,1-16.4-6.89c6.58-5.13,16-.63,24.31-.27,2.24.1,4.86-.36,5.91-2.34a13,13,0,0,0,.78-3.52c.57-2.68,2.58-4.78,4.51-6.72,3.6-3.61,7.4-7.35,12.28-8.81a11,11,0,0,0,3.29-1.22c1.54-1,2.18-3,2.71-4.76,1.8-6,3.62-12,3.68-18.26s-1.66-13,.64-19a5.12,5.12,0,0,0,.59-2.42,4.49,4.49,0,0,0-2-2.72l-12.86-10.12c0,3.07-2.46,5.75-5.35,6.78s-6.1.72-9.1.09a5.69,5.69,0,0,0-3.24-.09c-1.84.71-2.32,3.13-2,5.08s1.15,3.87.82,5.82c-.29,1.8-1.52,3.29-2.21,5s-.56,4.05,1.09,4.84c.6.3,1.35.33,1.84.8,1,1,0,2.66-1.15,3.52-5.27,4.11-13.37,6-15,12.53a7.72,7.72,0,0,1-3.67-4.56l-5.13,9.85a15.77,15.77,0,0,0-14.47,1.35c.49-5.87,5.07-10.42,9-14.82A91.9,91.9,0,0,0,1181,747.07a6.19,6.19,0,0,0-.1-2.61,7.29,7.29,0,0,0-2-2.68,26.84,26.84,0,0,1-7.84-19.74c-1.93-1.33-4.61-.52-6.57.76s-3.73,3-6,3.57c-5.47,1.37-11.9-4.33-16.34-.86-3.13,2.44-2.61,7.9-5.92,10.08-1.74,1.15-4.26,1.15-5.46,2.85-1,1.39-.63,3.28-.68,5-.18,6.19-6,10.47-9.43,15.61-5.55,8.28-5,19.08-4.17,29a6,6,0,0,0,.77,3c.82,1.2,2.37,1.64,3.54,2.51,5,3.75,2.06,14.31,8.09,16-3.7-.46-4.78-5.26-7.39-7.92-5.52-5.64-17.67-1.29-21.28-8.31,1.58,3.89-3.65,7.31-7.84,7S1084,797.93,1080,799c-2.86.77-5.07,3-7.65,4.47-10.22,5.86-23-1-34.73,0-4.18.35-9.11,2.86-8.89,7,.19,3.74,4.46,6.17,5,9.87.24,1.61-.27,3.25-.09,4.87.37,3.44,3.64,5.78,6.8,7.17a34.55,34.55,0,0,0,25.6.79" transform="translate(-108.92 -95.17)"/><path class="cls-14" d="M1066.37,834.22c.5-.4,1.38-.2,2-.22a5.78,5.78,0,0,0,1.7-.25,6.35,6.35,0,0,0,2.71-1.79c1.8-2,2.3-4.61,2.69-7.17l-1.47.6,6.55,2.93c1.6.71,3.41,1.66,5.2,1.09s1.83-2.26,2.88-3.54c.75-.92,2.07-.53,3.09-.38s2.25.31,3.38.43a96.29,96.29,0,0,0,14.41.47c4.42-.19,9.1-.65,13.28,1.16v-1.73a70.81,70.81,0,0,0-6.85,3.31,8.12,8.12,0,0,0-3.41,4.55c-.74,2.22-1.11,4.49-2.14,6.62a20.35,20.35,0,0,1-3.85,5.44c-1.56,1.57-3.33,2.92-4.83,4.55a15.1,15.1,0,0,0-1.79,2.34c-.51.84-.84,1.9-1.76,2.39-1.44.77-3.46.23-5,.14a6.3,6.3,0,0,0-4.53,1.08c-1,.81-1.47,2.07-2.86,2.28a10.09,10.09,0,0,1-3.72-.61l-9-2.3a1,1,0,0,0-1.23,1.23c1.33,5.81,6.39,9.51,11.25,12.36,6.64,3.9,13.44,7.54,20.16,11.29,1.27.71,2.6,1.6,4.13,1.32s2.72-1.51,3.79-2.56c2.51-2.48,4.65-5.31,7.21-7.75s5.48-4.42,8.92-4.77c1.28-.13,2.79.12,3.81-.85s.59-2.47.37-3.78c-.64-3.7,3.17-6.34,5.62-8.4s5.12-4.92,4.79-8.48c-.12-1.25-2-1.31-2,0a139.85,139.85,0,0,0,1.33,16.35c.37,2.69.78,5.38,1.2,8.07a49.9,49.9,0,0,0,1.43,7.58,10.72,10.72,0,0,0,3.18,5.18c1.71,1.43,4.24,1.76,5.08,4.05.64,1.71.63,3.61,1.41,5.28a4.74,4.74,0,0,0,4.63,2.74c1.25,0,2.48-.36,3.73-.28a9.43,9.43,0,0,1,4,1.66,14.92,14.92,0,0,0,7.3,2,35.85,35.85,0,0,0,15.33-3,19.31,19.31,0,0,0,9.75-9.55,14.78,14.78,0,0,0-.56-12.75c-2.42-4.74-6.68-8.27-11.06-11.13-2.36-1.55-5-3.13-6.45-5.66-1.18-2.1-1.38-5,.47-6.75a1,1,0,0,0-.7-1.7,28.81,28.81,0,0,1-15.69-6.6l-.21,1.57c3.32-2.49,7.36-2.55,11.32-2s7.89,1.59,11.92,1.85c3.43.22,7.21-.69,7.92-4.56a20,20,0,0,1,.51-2.76,9.74,9.74,0,0,1,1.64-2.91,48.5,48.5,0,0,1,4.33-4.51c3.11-3,6.44-5.67,10.68-6.86a7.17,7.17,0,0,0,4.49-2.94,23,23,0,0,0,2.14-5.83,66.53,66.53,0,0,0,2.93-14.08c.34-4.61-.49-9.18-.47-13.79a21,21,0,0,1,1.33-7.44,4.3,4.3,0,0,0-1.32-5.28c-4.28-3.72-8.95-7.06-13.4-10.57a1,1,0,0,0-1.71.71,6.6,6.6,0,0,1-4.2,5.65c-2.67,1.17-5.78.89-8.56.34-2.25-.44-4.7-.84-6.15,1.4-1.18,1.83-.93,4.07-.46,6.08a9.13,9.13,0,0,1,.41,4.51,23,23,0,0,1-1.74,3.65c-.82,1.74-1.2,4,0,5.65a4,4,0,0,0,2.12,1.43c.8.31,1,.57.6,1.35a4.91,4.91,0,0,1-1.42,1.38,53.1,53.1,0,0,1-5.52,3.32c-3.91,2.18-8,4.71-9.25,9.33l1.47-.6a6.86,6.86,0,0,1-3.21-4,1,1,0,0,0-1.83-.24l-5.13,9.86,1.13-.46a16.85,16.85,0,0,0-15.24,1.44l1.5.87c.43-4.3,3.15-7.85,5.89-11s5.56-6.27,8.05-9.67a93.25,93.25,0,0,0,12.23-22.79,90.61,90.61,0,0,0,3.66-12.62c.46-2.11.83-4.23,1.13-6.37.28-2,.89-4.33,0-6.21s-2.63-3-3.85-4.48a26.13,26.13,0,0,1-5.34-11.52,23.86,23.86,0,0,1-.4-3.14c0-.83.25-2.22-.17-2.93-.89-1.52-3.79-1.27-5.17-.88a17.07,17.07,0,0,0-5.17,3,8.48,8.48,0,0,1-5.34,1.93,22.16,22.16,0,0,1-5.38-1.2c-3-.88-6.47-1.79-9.22.26s-2.88,5.59-4.43,8.36c-.92,1.66-2.31,2.18-4,2.79s-3,1.31-3.7,2.94c-.77,1.86-.19,3.91-.51,5.85a13.13,13.13,0,0,1-2.28,5.2c-2.16,3.19-5,5.84-7.13,9.09a29.09,29.09,0,0,0-4.11,11.75,65.51,65.51,0,0,0-.31,12.68,50.21,50.21,0,0,0,.53,6.38c.38,2,1.69,3,3.36,4,5.47,3.08,3.15,10.41,6.6,14.86a5.81,5.81,0,0,0,3,2l.53-1.93c-3.13-.5-4.29-4.29-6-6.53a11.57,11.57,0,0,0-6.9-4.16c-2.83-.66-5.75-.74-8.61-1.25-2.64-.47-5.23-1.32-6.58-3.82-.53-1-2.22-.31-1.83.77.7,1.91-.47,3.49-2.07,4.49a8.45,8.45,0,0,1-5.83,1.12c-4.86-.69-9.42-2.66-14.11-.12-2.15,1.16-4,2.83-6.14,3.94a17.58,17.58,0,0,1-6.58,1.79c-4.81.4-9.6-.57-14.31-1.34-4.52-.74-9.3-1.55-13.87-.81-3.41.55-7.49,2.47-8.46,6.1-1.07,4,2.33,6.67,4.09,9.79,1.27,2.26.37,4.47.66,6.88a8.17,8.17,0,0,0,2.76,5c3.7,3.39,9.24,4.9,14.1,5.54a35.6,35.6,0,0,0,16.78-1.8c1.21-.43.69-2.36-.53-1.92a34.08,34.08,0,0,1-14.54,1.91c-4.58-.39-9.7-1.65-13.47-4.38a6.73,6.73,0,0,1-3.16-5.41c0-2.18.44-4.09-.51-6.16-1.36-3-5.74-6.07-4-9.69s6.84-4.19,10.35-4.15c4.79.06,9.48,1.09,14.2,1.79,4.37.66,8.86,1.11,13.21.11a18.64,18.64,0,0,0,6-2.58c1.94-1.27,3.76-2.9,6-3.62,5.06-1.65,10.11,2.12,15.22,1,3.53-.79,7.6-4,6.12-8l-1.83.77c3,5.51,10.27,4.79,15.54,5.81,3.15.61,5.58,1.84,7.36,4.59,1.62,2.5,3.08,5.76,6.37,6.28a1,1,0,0,0,.53-1.93c-3-.92-3.38-4.73-3.88-7.35-.57-3-1.21-6.41-3.76-8.4-.8-.62-1.74-1-2.57-1.57-1.27-.87-1.37-2.2-1.49-3.62-.18-2.34-.35-4.69-.42-7a45.06,45.06,0,0,1,1.52-14.76c1.42-4.58,4.22-8,7.24-11.62,2.65-3.18,5.23-6.67,5.3-11a12.71,12.71,0,0,1,.15-3.49,3.41,3.41,0,0,1,2.48-2c1.82-.64,3.47-1.23,4.66-2.84,2-2.71,1.89-7.73,5.37-9.17,2-.82,4.3-.06,6.25.5a24.29,24.29,0,0,0,6.56,1.38c2.51,0,4.54-1.13,6.51-2.56s4.89-3.72,7.48-2.12l-.49-.87a28.06,28.06,0,0,0,6,18c.91,1.16,2,2.15,3,3.23,1.5,1.61,1.11,3.41.85,5.43a89.14,89.14,0,0,1-1.91,10,91,91,0,0,1-18,35.8c-4.44,5.36-10.43,10.38-11.16,17.75a1,1,0,0,0,1.51.86,15,15,0,0,1,13.69-1.24,1,1,0,0,0,1.13-.46l5.14-9.86-1.83-.24a9,9,0,0,0,4.13,5.16,1,1,0,0,0,1.47-.6c1.11-4.24,5.21-6.4,8.77-8.38a48.51,48.51,0,0,0,5.47-3.35c1.43-1.08,3.2-3.26,1.79-5-.68-.85-1.69-.74-2.5-1.34s-.81-2.16-.52-3.13c.77-2.48,2.62-4.26,2.46-7-.13-2.44-1.82-5.33-.52-7.68.68-1.26,2-1.15,3.21-.91a37.61,37.61,0,0,0,4.38.66c5.27.35,11.61-2.34,11.74-8.41l-1.71.71,11.5,9a27.6,27.6,0,0,1,2.31,1.89c1,.94.84,1.78.4,3a20.94,20.94,0,0,0-1.32,6c-.32,4.4.48,8.78.49,13.18a51.58,51.58,0,0,1-2.29,13.82c-.58,2.08-1.12,4.22-1.89,6.23a5.68,5.68,0,0,1-1.54,2.39,7.28,7.28,0,0,1-2.86,1.17,25.15,25.15,0,0,0-10,6.13c-2.7,2.49-6,5.26-7.43,8.73-.69,1.66-.33,4.17-1.68,5.46s-3.28,1.21-4.9,1.12c-7.89-.44-17.3-4.94-24.43.43a1,1,0,0,0-.21,1.57,31.19,31.19,0,0,0,17.11,7.18l-.71-1.71c-3,2.86-2.2,7.62.2,10.59,2.92,3.61,7.51,5.47,11,8.51s6.41,6.79,7,11.35-1.68,9-5.09,12c-3.81,3.37-9,4.86-13.91,5.46a25.76,25.76,0,0,1-7.79.09c-2.56-.49-4.43-2.22-6.83-3a7.84,7.84,0,0,0-3.3-.29c-1.27.12-2.88.56-4.06-.14-1.48-.87-1.58-3.1-1.9-4.59a7.08,7.08,0,0,0-2.42-4.45,31.91,31.91,0,0,0-2.92-1.62,6.62,6.62,0,0,1-2.32-2.38,19.52,19.52,0,0,1-2-7.16c-.46-3-.93-6-1.36-9a142.17,142.17,0,0,1-1.53-17.73h-2c.28,3-2.07,5.27-4.21,7.07s-4.38,3.5-5.58,6.07a6.73,6.73,0,0,0-.65,3.64c.06.56.37,1.21.37,1.77,0,1.2-1.27.88-2.11.93a15.45,15.45,0,0,0-8,3.1,42.44,42.44,0,0,0-6.65,6.48c-1.07,1.21-2.14,2.42-3.29,3.56a12.39,12.39,0,0,1-1.71,1.52,2.24,2.24,0,0,1-2.59.08c-3.22-1.62-6.32-3.53-9.46-5.29l-9.57-5.35c-5.14-2.87-11.24-6.29-12.66-12.49l-1.23,1.23,8.07,2.06c2.08.53,4.55,1.46,6.66.58a5.63,5.63,0,0,0,2.08-1.77,3.26,3.26,0,0,1,2.47-1.27c1.81-.13,3.61.38,5.42.19a4.84,4.84,0,0,0,3.92-2.72,19.56,19.56,0,0,1,4.26-5.07c3.42-3.07,6.26-6.33,7.79-10.74.81-2.32.93-5.28,2.72-7.11a12.46,12.46,0,0,1,3.72-2.16l4.2-2a1,1,0,0,0,0-1.73c-4-1.73-8.26-1.71-12.53-1.51a107.57,107.57,0,0,1-14.25-.2c-2.28-.2-4.59-.75-6.87-.82a3.72,3.72,0,0,0-3.7,2.43c-.37.77-.65,1.74-1.64,1.86a6.78,6.78,0,0,1-3.25-1l-6.55-2.93c-.52-.23-1.36-.1-1.47.6-.37,2.41-.74,5.2-2.75,6.84-1.77,1.44-4.06.3-5.8,1.71-1,.81.42,2.22,1.41,1.41Z" transform="translate(-108.92 -95.17)"/><path class="cls-13" d="M1075.87,995.13l-1-6.08a2,2,0,0,1,.05-1.15,1.88,1.88,0,0,1,.92-.76,38.85,38.85,0,0,1,10.33-3.48,10.08,10.08,0,0,0,2.88-.79,6.11,6.11,0,0,0,2.9-5.4,18.07,18.07,0,0,0-1.4-6.23l-3.26-9.18c-.8-2.25-1.61-4.62-1.18-7a18.5,18.5,0,0,0,.76-3.78c-.09-2.3-2.1-4-3.93-5.39l-13.79-10.41a27.65,27.65,0,0,1-17,12.47l16.4-28.28c1.47-2.53,2.86-6,.9-8.11-.59-.65-1.42-1.06-2-1.75a6,6,0,0,1-1-3l-1.94-15.18a19.58,19.58,0,0,1-.11-6.25c.48-2.43,1.88-5,.81-7.22-1.22-2.53-4.83-2.88-6.59-5.07a15,15,0,0,1-1.65-3.39c-2.4-5.26-8.3-7.74-13.51-10.25s-10.78-6.4-11.17-12.16a89.2,89.2,0,0,1-14.15,12l-4.21,21.28c-.26,1.33-.36,3,.82,3.68a5,5,0,0,0,1.93.33c3.89.41,5.54,5.08,6.33,8.92l3.71-2.21a27.69,27.69,0,0,1,.85,19.31,16.49,16.49,0,0,0-1.18,4.69,12.54,12.54,0,0,0,.69,3.77l2.59,8.81c-3.24.63-4.52,4.71-4.1,8s1.86,6.47,1.45,9.75l-10.57-25.9a26.75,26.75,0,0,1-1.93-6c-.32-2.09-.14-4.24-.47-6.34a27.21,27.21,0,0,0-2.1-6.29l-7.6-17.7c-1.21-2.81-3-6-6.05-6.23S993,880,990,880.51c-2.1.34-4.16-.63-6.16-1.37-1.28-.48-2.93-.78-3.83.23a3.64,3.64,0,0,0-.69,1.88l-4.4,26.26c-.55,3.28-1.08,6.75.14,9.84s4.07,5.37,5.4,8.45c2.12,4.9.07,11,2.7,15.64,2.34,4.13,7.66,5.78,10.21,9.79,1,1.53,1.6,3.46,3.23,4.27a7.08,7.08,0,0,0,3.75.35,35,35,0,0,1,15.53,2.56c-5.94-1.53-13.39-1.74-17,3.23-1.58,2.18-2,4.94-2.66,7.56a123,123,0,0,1-4,12.84l-9,25.6a29.39,29.39,0,0,1-4,8.36c-1.23,1.6-2.82,3-3.44,4.92-.77,2.34.07,4.87.91,7.18,1.54,4.24,3.22,8.68,6.65,11.61s9.19,3.66,12.23.33c1.49-1.63,2.07-3.87,2.59-6l2.68-10.92c.8-3.27,1.48-7.1-.67-9.69a28.24,28.24,0,0,1-2.51-2.63c-.65-1-.59-2.69.53-3.16.7-.28,1.49,0,2.24,0,2.17-.13,3.12-2.83,3.13-5s-.26-4.68,1.3-6.2a13.55,13.55,0,0,1,2.76-1.63c2.06-1.24,3.28-3.47,4.41-5.59l9.14-17.28c-.87,9.84,3.43,19.32,5,29.08,1.33,8.35.63,16.88-.08,25.31a12.32,12.32,0,0,1-.73,3.81,12.18,12.18,0,0,1-2.26,3.19l-6.47,7.35c10.41-2.4,20.92-4.83,30.51-9.54,3.26-1.61,6.7-3.87,7.47-7.43,1.13-5.27-4.24-10.39-2.94-15.62.65-2.64,2.95-5.09,2.13-7.68-.45-1.43-1.73-2.39-2.68-3.54-1.57-1.9-2.23-4.37-2.85-6.75l-5.66-21.79,14.86,16c2,2.13,4,4.32,6.7,5.51,3.68,1.64,8.52,1.45,10.9,4.7" transform="translate(-108.92 -95.17)"/><path class="cls-14" d="M1076.84,994.86l-.72-4.2a7.26,7.26,0,0,1-.32-1.87c.1-.87,1-1.06,1.73-1.38a38.53,38.53,0,0,1,8-2.61c2.3-.48,4.49-.77,6-2.79a8.45,8.45,0,0,0,1.33-6.17,40.32,40.32,0,0,0-2.47-8.08c-.95-2.69-2-5.36-2.83-8.1a10,10,0,0,1-.47-4.3,29.54,29.54,0,0,0,.79-3.62c.11-2.17-1.21-4-2.77-5.35-2.24-2-4.78-3.69-7.16-5.49l-8.28-6.25a1,1,0,0,0-1.37.36,27.12,27.12,0,0,1-16.44,12l1.13,1.46,14.67-25.28c1.72-3,4.65-6.87,3.5-10.54a4.82,4.82,0,0,0-1.16-1.91c-.73-.74-1.73-1.19-2.13-2.21a13.4,13.4,0,0,1-.54-3.16l-.5-3.92-.91-7.1a44.85,44.85,0,0,1-.67-7c.11-3.65,3.06-7.76-.07-10.94a17.14,17.14,0,0,0-3.91-2.48c-1.82-1-2.41-2.42-3.21-4.29a16.77,16.77,0,0,0-7-7.39c-3.44-2.1-7.27-3.46-10.69-5.61s-6.66-5.12-7-9.29a1,1,0,0,0-1.7-.71,92.62,92.62,0,0,1-9.4,8.53c-.89.69-1.79,1.36-2.7,2a8.59,8.59,0,0,0-2.22,1.66,10.53,10.53,0,0,0-.67,3.15l-.67,3.38-2.67,13.55c-.31,1.53-.81,3.27-.23,4.8.65,1.71,2.14,1.68,3.69,1.93,3.57.55,4.71,5.23,5.33,8.18a1,1,0,0,0,1.47.59l3.71-2.2-1.47-.6a27,27,0,0,1,1,18.36,28.8,28.8,0,0,0-1.24,4.23,10,10,0,0,0,.33,4.14c.87,3.3,1.91,6.57,2.87,9.85l.7-1.23c-3,.7-4.53,3.68-4.84,6.57-.44,4.13,1.88,8,1.46,12.13l2-.27-9-22c-1.39-3.38-3.24-6.9-3.61-10.59-.16-1.66-.1-3.33-.3-5a20.49,20.49,0,0,0-1.51-5.36c-1.37-3.38-2.86-6.71-4.3-10-1.5-3.49-2.9-7.05-4.51-10.48-1-2.22-2.53-4.61-4.95-5.47-2.77-1-5.13.66-7.43,2a6.29,6.29,0,0,1-4.38,1c-1.72-.31-3.24-1.24-4.94-1.61a4,4,0,0,0-3.55.57c-1.13,1-1.2,2.62-1.43,4l-3.83,22.86c-.54,3.22-1.28,6.55-.81,9.83s2.43,5.62,4.33,8.21a12.79,12.79,0,0,1,2.11,3.85,19.46,19.46,0,0,1,.67,5.1c.1,3,.06,6.15,1.36,9s3.79,4.56,6.17,6.32a20.4,20.4,0,0,1,3.73,3.27c1,1.18,1.51,2.64,2.41,3.87,2.25,3.09,6,2,9.28,2.09a34.68,34.68,0,0,1,12.09,2.58l.53-1.93c-5.1-1.28-11.45-1.89-15.92,1.46-2.52,1.88-3.69,4.69-4.41,7.66-.88,3.6-1.78,7.15-3,10.67-2.56,7.6-5.31,15.14-8,22.7-1.29,3.67-2.46,7.43-4,11a20.92,20.92,0,0,1-2.29,4.21,40.18,40.18,0,0,0-3.22,4.16c-1.8,3.32-.46,6.9.75,10.17a32.15,32.15,0,0,0,4.18,8.42c3.19,4.23,9.53,7.25,14.5,4,2.6-1.67,3.55-4.63,4.26-7.48.95-3.83,1.91-7.65,2.81-11.48.65-2.76,1.22-5.84.07-8.54a11.79,11.79,0,0,0-2.83-3.46,2.31,2.31,0,0,1-.88-1.87c.17-1,1.46-.5,2.18-.54,3-.15,4.08-3.5,4.13-6,0-1.64-.33-3.73.71-5.15a6.83,6.83,0,0,1,2.5-1.62,9.07,9.07,0,0,0,2-1.52,16.67,16.67,0,0,0,2.74-4c1.05-1.94,2.07-3.9,3.1-5.85l6.4-12.1-1.86-.5c-.73,9,2.6,17.54,4.43,26.2,2,9.48,1.33,19.27.41,28.84a8.15,8.15,0,0,1-1,3.61,24.12,24.12,0,0,1-2.57,3.14l-5.5,6.24a1,1,0,0,0,1,1.67,197.19,197.19,0,0,0,21.66-5.85,76.55,76.55,0,0,0,9.75-4.12c2.56-1.33,5.24-3.12,6.58-5.78s1-5.29.07-7.9-2.49-5.32-2.49-8.2c0-3.11,2.77-5.52,2.49-8.68a5.77,5.77,0,0,0-1.59-3.28,14.66,14.66,0,0,1-3.06-4.42c-1.48-3.86-2.24-8.09-3.28-12.08L1043.57,968l-1.67,1,8.44,9.09c2.75,3,5.42,6,8.29,8.87a17.47,17.47,0,0,0,8,4.73c2.74.73,5.85,1.13,7.7,3.52.79,1,2.2-.41,1.42-1.41-1.72-2.23-4.46-3-7.07-3.65a22.39,22.39,0,0,1-4.41-1.39,16.23,16.23,0,0,1-4.24-3.22c-5.8-5.75-11.18-12-16.74-17.95a1,1,0,0,0-1.67,1c1.92,7.39,3.81,14.79,5.76,22.18a17.2,17.2,0,0,0,4,7.91c1.09,1.16,1.82,2.24,1.39,3.89a38.05,38.05,0,0,1-1.77,4.17c-1,2.57-.51,5.19.4,7.71s2.37,5.12,2.31,7.88c-.06,3.13-2.52,5.3-5,6.79a55.23,55.23,0,0,1-9.44,4.26,187.29,187.29,0,0,1-22.95,6.32l1,1.68,5-5.7c1.44-1.63,3.15-3.24,4-5.28s.8-4.37,1-6.52c.21-2.51.39-5,.51-7.56a78.41,78.41,0,0,0-.55-14.85,139.55,139.55,0,0,0-3.13-13.68c-1.31-5.2-2.37-10.47-1.93-15.86a1,1,0,0,0-1.87-.51l-5.25,9.94c-1.65,3.11-3.17,6.34-5,9.35a9.19,9.19,0,0,1-2.94,3.22c-1.29.79-2.69,1.21-3.57,2.54-1.57,2.38-.52,5.23-1.19,7.81-.31,1.2-.93,2.34-2.3,2.35-1.21,0-2.3-.23-3.18.82-1.9,2.27.51,4.6,2,6.11,2.32,2.3,1.8,5.68,1.14,8.57-.82,3.59-1.75,7.15-2.62,10.72-.7,2.84-1.3,6.3-4.18,7.75a8.5,8.5,0,0,1-7.57-.47,14.37,14.37,0,0,1-5.69-6.56,34.24,34.24,0,0,1-3.39-9.28c-.67-3.88,2.32-5.86,4.21-8.77a41.6,41.6,0,0,0,3.84-9l7.39-21c1.4-3.95,2.85-7.9,4-11.92.57-1.9,1-3.82,1.47-5.76a18.3,18.3,0,0,1,1.56-4.72c3.17-5.79,11-5.16,16.5-3.79a1,1,0,0,0,.53-1.93,36.18,36.18,0,0,0-14.44-2.65c-1.53,0-3.54.56-4.9-.31-1.09-.7-1.61-2.09-2.23-3.17a13,13,0,0,0-2.27-2.9c-1.85-1.79-4.11-3.08-6-4.79a10.63,10.63,0,0,1-3.54-7.48c-.24-2.9,0-5.86-.7-8.72s-2.46-5-4.16-7.26a12.11,12.11,0,0,1-2.49-8.75c.27-3.49,1.05-7,1.63-10.44l1.79-10.7.9-5.35.41-2.43a5.7,5.7,0,0,1,.55-2.34c.92-1.16,3.18.06,4.19.44a11.36,11.36,0,0,0,4.69,1c2.72-.18,4.58-2.2,7-3.08,2.86-1,4.78,1.25,6,3.55,1.55,2.92,2.7,6.11,4,9.16l4.29,10a34.67,34.67,0,0,1,1.93,5.21,35.66,35.66,0,0,1,.55,6c.29,3.69,1.86,7,3.25,10.41l9.43,23.12a1,1,0,0,0,2-.26c.37-3.65-1.35-6.95-1.51-10.53-.12-2.46.71-5.62,3.42-6.24a1,1,0,0,0,.7-1.23c-.94-3.21-1.94-6.41-2.82-9.64a8.31,8.31,0,0,1,0-4.79c.43-1.48,1-2.91,1.36-4.42a28.81,28.81,0,0,0-1.44-17.73,1,1,0,0,0-1.47-.6l-3.71,2.21,1.46.59a17,17,0,0,0-2.86-7.1,6.73,6.73,0,0,0-2.71-2.13c-1.21-.5-3.47,0-3.62-1.65s.52-3.53.83-5.14l1.15-5.8,2.34-11.85-.46.59A92.21,92.21,0,0,0,1033,848l-1.71-.7c.62,7.19,7.47,11,13.31,13.81,3.18,1.51,6.5,3.08,9,5.59a14,14,0,0,1,3,4.84,7.52,7.52,0,0,0,2.87,3.66c1.31.87,2.93,1.37,4.08,2.47,1.62,1.55.86,3.76.31,5.62-1.31,4.47-.32,9,.26,13.49l.91,7.1c.24,1.9.21,4.22,1.14,5.94s3,2.16,3.11,4.24c.09,1.89-.94,3.74-1.85,5.32-5.4,9.37-10.85,18.71-16.27,28.07a1,1,0,0,0,1.12,1.46A29.12,29.12,0,0,0,1070,936l-1.37.36c4.6,3.47,9.22,6.91,13.79,10.41,1.88,1.45,3.87,3.13,3.3,5.74A22.52,22.52,0,0,0,1085,956a12.06,12.06,0,0,0,.49,3.77c.69,2.59,1.73,5.1,2.63,7.62a55.55,55.55,0,0,1,2.65,8.1c.41,2.18.17,5-1.91,6.36a11,11,0,0,1-3.63,1,39.23,39.23,0,0,0-4,1,40.79,40.79,0,0,0-3.86,1.46c-1,.45-2.48.87-3.18,1.83s-.26,2.43-.07,3.57l.8,4.68c.21,1.26,2.14.73,1.93-.54Z" transform="translate(-108.92 -95.17)"/><path class="cls-15" d="M1127.26,834.17c.25-.95-1.19-1.47-2.11-1.13s-1.81,1.05-2.78.85a5.06,5.06,0,0,0-.93-.23c-.63,0-1.07.57-1.52,1s-1.24.75-1.65.27l-3.23,7.58c-.88,2.07-1.68,4.7-.16,6.36a1.61,1.61,0,0,0,.68.47c.9.27,1.66-.67,2.13-1.48l.12,3.44c0,.59.31,1.41.89,1.26.26-.06.42-.31.55-.53l1.35-2.24c.89,3.07-1.88,6.35-.92,9.4a19.48,19.48,0,0,0,3.18-5l-.39,4.66a3.62,3.62,0,0,0,1.65-1.74c.12.51.83.67,1.3.43a2.71,2.71,0,0,0,1-1.18,35.76,35.76,0,0,1,5.28-7c2.4-2.49,5.28-4.84,6.2-8.17.12-.45.13-1.07-.31-1.24s-.74.17-1,.45l-2,2.06-.37-4.07-1.55.87,0-3a7.86,7.86,0,0,0-2.16,1.28l-.37-3.38C1129.38,834.26,1128,834.09,1127.26,834.17Z" transform="translate(-108.92 -95.17)"/><path class="cls-15" d="M1127.74,834.31a1.48,1.48,0,0,0-1-1.7,3.06,3.06,0,0,0-2.55.32,2.9,2.9,0,0,1-1.66.48c-.51-.07-.9-.33-1.44-.2a2.57,2.57,0,0,0-1.13.73c-.25.25-.9,1-1.3.64a.51.51,0,0,0-.79.1l-2.54,6a20.19,20.19,0,0,0-1.7,4.88,4.22,4.22,0,0,0,1.17,3.92c1.34,1.12,2.67-.19,3.36-1.34l-.94-.25c0,1.06.07,2.13.12,3.19a2.22,2.22,0,0,0,.66,1.81,1.07,1.07,0,0,0,1.53-.31A26.67,26.67,0,0,0,1121,850l-.91-.12c.43,1.63-.15,3.25-.6,4.81a8.27,8.27,0,0,0-.33,4.59.5.5,0,0,0,.84.22,20.33,20.33,0,0,0,3.26-5.07l-.93-.25-.39,4.66a.51.51,0,0,0,.76.43,4.23,4.23,0,0,0,1.82-1.92l-.91-.12a1.4,1.4,0,0,0,1.78.84c.87-.27,1.29-1.23,1.72-1.94a35,35,0,0,1,4.17-5.64c1.4-1.55,3-2.93,4.34-4.5,1.21-1.39,2.57-3.17,2.81-5,.1-.82-.38-1.78-1.35-1.51a3.49,3.49,0,0,0-1.37,1.1l-1.5,1.55.86.35-.37-4.07a.51.51,0,0,0-.76-.43l-1.54.87.75.43,0-3c0-.29-.32-.61-.63-.48a9.26,9.26,0,0,0-2.39,1.4l.86.36-.37-3.38c0-.25-.21-.53-.5-.5-1,.09-1.92-.09-2.87,0-.64.06-.64,1.06,0,1,1-.09,1.91.09,2.87,0l-.5-.5.37,3.38a.51.51,0,0,0,.85.35,7.76,7.76,0,0,1,1.94-1.15l-.63-.48,0,3a.52.52,0,0,0,.76.44l1.54-.88-.75-.43.37,4.07a.5.5,0,0,0,.85.35l1.33-1.37c.22-.23.43-.47.66-.69s.42-.49.54-.15-.19.91-.29,1.19a8.75,8.75,0,0,1-.71,1.44,23.79,23.79,0,0,1-3.87,4.51,43.62,43.62,0,0,0-4.19,4.72c-.66.88-1.28,1.79-1.86,2.72-.28.46-.53,1-.84,1.4-.14.21-.91,1-1.12.41-.13-.36-.71-.54-.91-.12a3.32,3.32,0,0,1-1.47,1.56l.75.44.39-4.66c0-.48-.74-.7-.94-.25a19.27,19.27,0,0,1-3.1,4.87l.84.22c-.47-1.62.09-3.24.54-4.8a8.5,8.5,0,0,0,.38-4.6.5.5,0,0,0-.91-.12l-1,1.63a3.29,3.29,0,0,1-.46.74c-.09.21-.18.22-.25,0a1.52,1.52,0,0,1-.12-.32,9.08,9.08,0,0,1-.1-1.81l-.07-2a.5.5,0,0,0-.93-.26c-.28.47-.74,1.27-1.37,1.28s-1.06-.85-1.21-1.34A5.88,5.88,0,0,1,1115,844c.48-1.43,1.14-2.8,1.73-4.18l2-4.6-.78.1a1.56,1.56,0,0,0,2,0c.37-.25.63-.62,1-.89s.81-.14,1.34,0a4.22,4.22,0,0,0,2.61-.67,2,2,0,0,1,1.18-.26c.28,0,.81.21.75.59C1126.66,834.67,1127.62,834.94,1127.74,834.31Z" transform="translate(-108.92 -95.17)"/><path class="cls-15" d="M1114.52,821.79c-3.76-2.22-8.28-2.82-12.65-2.81s-8.74.56-13.12.43c-3.25-.1-6.79-.73-8.94-3.18.85-1.74,3-2.41,4.92-2.57s4,0,5.7-.88c-1.72-2.11-6-1.06-7-3.58a15.17,15.17,0,0,1,6.57-.09c2.1.44,4.08,1.33,6.19,1.72s4.49.2,6.06-1.25l-11.47-4.13c4.9-1.9,10.42-.21,15.63-.84,2.55-.31,5-1.18,7.58-1.25s5.41.93,6.49,3.25a1.85,1.85,0,0,1-.08,2,2,2,0,0,1-1.64.46c-1.73-.08-3.82-.45-4.87.92a15.7,15.7,0,0,1,7.71,7.16c.42.82.73,1.93.08,2.58s-1.45.44-2.23.43C1117.76,820.15,1115.63,820.59,1114.52,821.79Z" transform="translate(-108.92 -95.17)"/><path class="cls-15" d="M1114.78,821.36c-4-2.33-8.72-2.92-13.28-2.88-5,0-10.15.92-15.15.24a9.85,9.85,0,0,1-6.19-2.84l.08.61c.83-1.61,2.72-2.16,4.4-2.32,2.06-.2,4.12-.06,6-.95a.51.51,0,0,0,.11-.79,6.32,6.32,0,0,0-3.65-1.69c-1.24-.28-2.75-.5-3.33-1.79l-.3.73a14.72,14.72,0,0,1,5.61-.21,41,41,0,0,1,5.1,1.41c2.77.8,6,1.11,8.33-1a.5.5,0,0,0-.22-.83L1090.87,805v1c5.26-2,11-.07,16.43-1,2.71-.44,5.47-1.45,8.24-1a7,7,0,0,1,2.91,1.1c.81.55,1.92,1.72,1.72,2.81-.14.77-1,.72-1.64.69s-1.32-.1-2-.1a3.81,3.81,0,0,0-3.06,1.17c-.18.22-.22.65.1.79a15.15,15.15,0,0,1,7.56,7.06c.37.74.69,1.92-.42,2.16a20.54,20.54,0,0,1-2.36.07,6.74,6.74,0,0,0-4.2,1.73c-.45.46.26,1.17.71.7,1.3-1.32,3.32-1.48,5.07-1.46a2.47,2.47,0,0,0,2.22-.82,2.57,2.57,0,0,0,0-2.44,14.37,14.37,0,0,0-3.27-4.6,16.27,16.27,0,0,0-4.86-3.26l.1.78c.85-1,2.25-.91,3.45-.84s2.43.3,3.18-.67.24-2.31-.38-3.2a6.06,6.06,0,0,0-2.6-2c-2.52-1.09-5.22-.73-7.83-.18a33.17,33.17,0,0,1-4.75.8,41.35,41.35,0,0,1-4.59,0c-3.37-.18-6.84-.42-10.07.8a.5.5,0,0,0,0,1l11.47,4.13-.22-.83c-2.43,2.14-5.95,1.15-8.68.28a23.14,23.14,0,0,0-4.85-1.15,16,16,0,0,0-5.07.36.5.5,0,0,0-.3.73c1.28,2.85,5.3,1.55,7.13,3.69l.1-.79c-3.36,1.56-8.72-.39-10.8,3.63a.51.51,0,0,0,.08.61c2.91,3.23,7.72,3.41,11.77,3.33,5.12-.1,10.27-.83,15.38-.17a20.52,20.52,0,0,1,7.66,2.47A.5.5,0,0,0,1114.78,821.36Z" transform="translate(-108.92 -95.17)"/><path class="cls-15" d="M1147.87,849.75c.34,4.13.57,7.35.91,11.48a26.43,26.43,0,0,0,.72,5,24,24,0,0,0,4.2,7.69c.89,1.22,2.47,2.53,3.7,1.67a2.88,2.88,0,0,0,.93-2.06,28.9,28.9,0,0,0-.08-8.51c1,.37,1.28,2.34,2.34,2,.58-.16.71-.91.72-1.52l.17-7a23.3,23.3,0,0,0,9,6.68c1.35.56,3.16.88,4-.27s.1-2.89-.8-4.09c-2.84-3.74-6.5-6.81-9.2-10.66a57.64,57.64,0,0,0-3.47-5,13.92,13.92,0,0,0-6.92-4.28,3.4,3.4,0,0,0-2.73.16c-1.13.76-1.12,2.38-1.24,3.74s-.94,3-2.29,2.82Z" transform="translate(-108.92 -95.17)"/><path class="cls-15" d="M1147.37,849.75c.24,3,.46,5.91.7,8.87s.27,5.85,1.21,8.59a24.82,24.82,0,0,0,4.17,7.22,4.72,4.72,0,0,0,2.73,1.91,2.14,2.14,0,0,0,2.33-1.43,7.82,7.82,0,0,0,.41-2.09c.1-.89.16-1.79.18-2.68a29.6,29.6,0,0,0-.37-5.24l-.73.56c.74.32,1,1.25,1.51,1.77a1.27,1.27,0,0,0,2-.3,2.8,2.8,0,0,0,.31-1.3c0-.77,0-1.54.06-2.32l.11-4.72-.85.36a24.31,24.31,0,0,0,4.62,4.27,18.71,18.71,0,0,0,5.45,2.82c1.53.44,3.55.31,4.14-1.46s-1-3.8-2.12-5.14c-2.9-3.52-6.34-6.55-8.86-10.38a26.12,26.12,0,0,0-4-5.3,14.64,14.64,0,0,0-5.14-3,5.7,5.7,0,0,0-3.33-.35,2.78,2.78,0,0,0-1.79,1.92c-.4,1.26,0,5.1-2.14,4.88a.5.5,0,0,0-.5.5l0,2a.5.5,0,0,0,1,0l0-2-.5.5c1.53.16,2.45-1.4,2.71-2.71s-.12-4,1.94-4.21a6.79,6.79,0,0,1,2.82.61,13.19,13.19,0,0,1,2.49,1.25,14.73,14.73,0,0,1,4.21,4.26c1.16,1.7,2.22,3.44,3.53,5s2.72,3.08,4.12,4.58a36.68,36.68,0,0,1,3.93,4.61,3.4,3.4,0,0,1,.74,2.6,1.77,1.77,0,0,1-2,1,8.67,8.67,0,0,1-2.82-1,23.78,23.78,0,0,1-2.86-1.64,23.06,23.06,0,0,1-4.84-4.41c-.29-.35-.85,0-.86.35l-.09,3.73c0,1.15,0,2.32-.09,3.46,0,.26-.08.88-.47.82-.22,0-.42-.45-.52-.61a3.26,3.26,0,0,0-1.31-1.39.5.5,0,0,0-.73.56,28.09,28.09,0,0,1,.07,8.34c-.17,1.07-.69,2.3-2,1.7a6.63,6.63,0,0,1-2.38-2.41,21.54,21.54,0,0,1-3.47-6.58,40.2,40.2,0,0,1-1-7.82c-.23-2.88-.45-5.77-.68-8.64C1148.32,849.11,1147.32,849.1,1147.37,849.75Z" transform="translate(-108.92 -95.17)"/><path class="cls-15" d="M1156.55,820.85c1.93,1,3.38,3.59,2.4,5.51-.71,1.38-2.24,2.58-1.9,4.1s2,1.93,3.49,2.07c6.29.6,12.64-.93,18.93-.36a14.93,14.93,0,0,0,3.89.09c3.08-.54,5.18-3.38,6.65-6.13a19.33,19.33,0,0,1,1.69-2.84c.89-1.14,2.07-2,3.06-3.09a5.32,5.32,0,0,0,1.67-3.89,7.16,7.16,0,0,1-4.09.86c-1.39-.28-2.61-1.79-2-3.09a7.28,7.28,0,0,1,1.21-1.46,1.47,1.47,0,0,0,.27-1.74c-2.21.42-4.07,2-6.28,2.44-3.62.72-7.31-1.72-10.94-1-2,.38-3.72,1.67-5.71,2.05-1.84.34-3.73-.12-5.59,0a8.6,8.6,0,0,0-7.21,5.49C1155.88,820.32,1156.13,821.11,1156.55,820.85Z" transform="translate(-108.92 -95.17)"/><path class="cls-15" d="M1156.29,821.28c1.45.76,2.75,2.49,2.43,4.2s-2.22,2.71-2.22,4.55,1.62,2.57,3.09,2.86a27.32,27.32,0,0,0,6.58.22c4.78-.22,9.49-.82,14.27-.35a8.23,8.23,0,0,0,5.72-1.13,12.79,12.79,0,0,0,3.54-4c.61-1,1.1-2,1.69-3a12.81,12.81,0,0,1,2.4-2.8c1.57-1.47,3.28-3.2,3.14-5.53a.51.51,0,0,0-.75-.43,7.38,7.38,0,0,1-3.4.85,2.35,2.35,0,0,1-2.07-1.59c-.27-1,.7-1.58,1.23-2.27a1.94,1.94,0,0,0,.27-2.24.5.5,0,0,0-.56-.23,17.83,17.83,0,0,0-4,1.62,8.29,8.29,0,0,1-4.26.91c-2.88-.21-5.62-1.59-8.55-1.19a16.72,16.72,0,0,0-4,1.44,9.45,9.45,0,0,1-2.07.67,11.17,11.17,0,0,1-2.65.07,13.53,13.53,0,0,0-4.35.22,9.22,9.22,0,0,0-3.26,1.65,9,9,0,0,0-2.62,3.31,2.05,2.05,0,0,0-.2,1.72.81.81,0,0,0,1.17.46c.59-.25.08-1.12-.51-.86h.25a.57.57,0,0,1,0-.22c0-.1.06-.28.1-.39a6.36,6.36,0,0,1,.33-.7,7.85,7.85,0,0,1,1-1.51,8.43,8.43,0,0,1,2.77-2.07,8.07,8.07,0,0,1,3.56-.7,29.6,29.6,0,0,0,4.21,0c2.69-.35,4.87-2.29,7.66-2.22,2.59.07,5,1.2,7.6,1.28a8.93,8.93,0,0,0,4-.89,20.07,20.07,0,0,1,4.13-1.7l-.56-.23c.36.57-.21,1.17-.58,1.56a4,4,0,0,0-.92,1.2,2.51,2.51,0,0,0,.49,2.61c1.65,2,4.33,1.1,6.35.24l-.76-.43c.12,2.1-1.53,3.59-2.93,4.9a14.22,14.22,0,0,0-2,2.18,30.14,30.14,0,0,0-1.51,2.65,14.93,14.93,0,0,1-3.15,4.2,7,7,0,0,1-5.53,1.56,50.4,50.4,0,0,0-6.73-.21c-2.24.11-4.47.32-6.71.46a44.21,44.21,0,0,1-6.71,0c-1.42-.13-3.77-.79-3-2.71a20.16,20.16,0,0,1,1.6-2.48,3.71,3.71,0,0,0,.48-2.35,5.56,5.56,0,0,0-2.93-4.08C1156.23,820.12,1155.72,821,1156.29,821.28Z" transform="translate(-108.92 -95.17)"/><path class="cls-15" d="M1130.77,805.74a21.65,21.65,0,0,0-1.61-13.57c-.88-1.87-2-3.64-2.4-5.67s.13-4.26.43-6.38c.45-3.18.4-6.42,1-9.58s2-6.33,4.66-8.14l.64,7.09a2.87,2.87,0,0,0,1,2.39,2,2,0,0,0,2.52-.88,7.05,7.05,0,0,0,.78-2.81,20.16,20.16,0,0,1,4.5-9.75,2.53,2.53,0,0,1,1.31-1,1.77,1.77,0,0,1,1.8,1,4.13,4.13,0,0,1,.28,2.18,14.54,14.54,0,0,1-1,4.41c-.38,1-.78,2.28.08,2.85a1.79,1.79,0,0,0,2-.33,6.35,6.35,0,0,1,1.75-1.24c1.38-.44,2.81.77,4.24.59,1.75-.21,3.26-2.37,4.82-1.56a3,3,0,0,1,1.22,1.92,9.11,9.11,0,0,1,.49,4.88c-.6,2.3-2.73,3.78-4.33,5.53-2.93,3.21-4.22,7.57-5,11.85s-1,8.66-2.29,12.8a2.57,2.57,0,0,1-.76,1.33,3,3,0,0,1-2.12.22,11.34,11.34,0,0,0-6.18,1.07,25.28,25.28,0,0,1-4.21,2.07C1132.92,807.49,1131.43,807.16,1130.77,805.74Z" transform="translate(-108.92 -95.17)"/><path class="cls-15" d="M1131.25,805.87a22.42,22.42,0,0,0,.08-8.6,21.3,21.3,0,0,0-1.28-4.33c-.54-1.3-1.24-2.53-1.85-3.8a9.8,9.8,0,0,1-1.08-4.41,43.2,43.2,0,0,1,.59-4.79c.43-3.2.37-6.47,1-9.64.61-2.86,1.9-5.74,4.36-7.47l-.76-.43.59,6.6c.13,1.39.34,3.42,2.13,3.56s2.75-1.58,3.05-3.09a28.16,28.16,0,0,1,1.4-5.47,19.34,19.34,0,0,1,3-5c.62-.75,1.5-1.49,2.29-.45a4.05,4.05,0,0,1,.32,2.87,14.63,14.63,0,0,1-.74,3.07,7.54,7.54,0,0,0-.66,2.31,1.77,1.77,0,0,0,.91,1.72,2.2,2.2,0,0,0,2.11-.27c.74-.46,1.32-1.35,2.26-1.41a9.77,9.77,0,0,1,2.54.59c1.67.36,2.79-.55,4.17-1.3.65-.35,1.4-.57,2,.08a6.58,6.58,0,0,1,1,2.62,6.89,6.89,0,0,1,.15,3.19,5.71,5.71,0,0,1-1.19,2.29c-1.09,1.35-2.47,2.41-3.56,3.74a18.14,18.14,0,0,0-2.71,4.66c-1.51,3.66-2,7.6-2.53,11.49a63.63,63.63,0,0,1-1.1,6.29c-.12.49-.26,1-.4,1.48a2.52,2.52,0,0,1-.69,1.39c-.67.49-1.91.09-2.68.07a12.06,12.06,0,0,0-5.66,1.24c-1.62.81-3.28,2.22-5.19,2.12a2.16,2.16,0,0,1-1.9-1.26c-.29-.57-1.15-.07-.86.51a3.39,3.39,0,0,0,3.86,1.66c2-.39,3.6-1.83,5.48-2.55a11.05,11.05,0,0,1,3.06-.69,23.52,23.52,0,0,1,2.91.11,2.25,2.25,0,0,0,2-.9,8.6,8.6,0,0,0,1-2.8c1.91-7.72,1.08-17,7-23.13a19.87,19.87,0,0,0,3.5-4,7.34,7.34,0,0,0,.36-5.56c-.37-1.42-.9-3.47-2.73-3.45-1.55,0-2.57,1.51-4,1.74a7.34,7.34,0,0,1-2.67-.56,3,3,0,0,0-2.36.29c-.71.44-1.4,1.47-2.31,1.44-1.07,0-.58-1.51-.36-2.09a14.33,14.33,0,0,0,1.17-5.88,3,3,0,0,0-1.09-2.27,2,2,0,0,0-2.18-.19,6.48,6.48,0,0,0-1.78,1.87,19.79,19.79,0,0,0-1.58,2.46,20.77,20.77,0,0,0-2,5.39c-.22,1-.28,2-.58,3-.25.8-1,1.91-2,1.61s-.93-1.54-1-2.29c-.11-1.14-.21-2.28-.31-3.42l-.31-3.42c0-.34-.41-.67-.75-.43-5,3.5-5.19,10-5.64,15.51-.14,1.68-.41,3.32-.64,5a12.16,12.16,0,0,0,0,4.58,18.05,18.05,0,0,0,1.7,4,23.76,23.76,0,0,1,1.73,4.1,21.27,21.27,0,0,1,.5,10.42C1130.16,806.23,1131.12,806.5,1131.25,805.87Z" transform="translate(-108.92 -95.17)"/><path class="cls-15" d="M1012.48,950.11c-1.94-1.52-4.41-.88-6.33.67a3.25,3.25,0,0,1-1.21.79,2.55,2.55,0,0,1-1.87-.58c-6.1-3.88-12.27-7.82-17.28-13a18.91,18.91,0,0,1,4.85.55,49.7,49.7,0,0,0-2.51-7l5.19,2.31c.54.24,1.24.44,1.64,0a1.48,1.48,0,0,0,.26-1l.08-3.43c.74.78,2.17,1.51,2.71.57.39-.69-.26-1.51-.32-2.3a2.06,2.06,0,0,1,1.75-2,4.66,4.66,0,0,1,2.79.57l-1.69-10c-.13-.76-.13-1.76.58-2.06s1.44.45,1.88,1.12c3.46,5.26,7,10.59,9,16.55.66,1.92,1.16,3.9,1.94,5.78A29.54,29.54,0,0,1,1016,943a17.89,17.89,0,0,1,.21,3.87,5.26,5.26,0,0,1-.84,3.32C1014.65,951.06,1013,951.18,1012.48,950.11Z" transform="translate(-108.92 -95.17)"/><path class="cls-15" d="M1012.73,949.68a4.94,4.94,0,0,0-5-.46,11.17,11.17,0,0,0-2.41,1.56c-1,.76-2-.21-2.9-.76-3.7-2.37-7.41-4.76-10.86-7.49a58.1,58.1,0,0,1-5.47-4.93l-.35.85a19.18,19.18,0,0,1,4.71.53.51.51,0,0,0,.62-.62,50.05,50.05,0,0,0-2.56-7.13l-.68.68,3.38,1.51a8.58,8.58,0,0,0,3,1.13,1.41,1.41,0,0,0,1.43-1.46c.1-1.22.06-2.46.09-3.69l-.86.36a3.65,3.65,0,0,0,2.15,1.15,1.42,1.42,0,0,0,1.54-1.35c0-1-.89-1.93-.09-2.81s2.39-.54,3.43,0a.51.51,0,0,0,.74-.56l-1-5.84-.45-2.67a6.53,6.53,0,0,1-.26-2.48c.27-1.07,1.24,0,1.56.46.54.78,1,1.59,1.56,2.38,1,1.5,1.93,3,2.84,4.55a51.14,51.14,0,0,1,4.59,9.62c.59,1.73,1.06,3.51,1.73,5.23s1.46,3.05,2,4.67a15,15,0,0,1,.41,6,2.65,2.65,0,0,1-1.08,2.15,1.21,1.21,0,0,1-1.69-.32c-.29-.57-1.15-.07-.86.5a2.25,2.25,0,0,0,3.3.53c1.46-1,1.38-3.18,1.4-4.77a14,14,0,0,0-1.16-6c-.42-1-.9-1.92-1.3-2.91s-.73-2.06-1-3.11a55.74,55.74,0,0,0-5.11-11.59c-1.06-1.81-2.18-3.58-3.32-5.33-.55-.83-1.06-1.73-1.68-2.51a2.08,2.08,0,0,0-2-1,1.68,1.68,0,0,0-1.18,1.7,15.63,15.63,0,0,0,.47,3.33l1.29,7.66.74-.56c-1.66-.78-4.14-1.2-5.09.85a2,2,0,0,0-.18,1.16c.07.49.34.93.4,1.41.17,1.37-1.56.18-2-.21a.5.5,0,0,0-.85.35l-.06,2.7c0,.3.1,1.06-.11,1.32s-.89,0-1.17-.11c-1.7-.73-3.39-1.51-5.08-2.26a.5.5,0,0,0-.68.68,48.37,48.37,0,0,1,2.45,6.9l.62-.62a20.35,20.35,0,0,0-5-.56.5.5,0,0,0-.35.85,65.76,65.76,0,0,0,10.06,8.33c1.85,1.28,3.73,2.5,5.62,3.71a16.67,16.67,0,0,0,2.63,1.58,2.23,2.23,0,0,0,2.4-.49c1.76-1.43,4-2.41,6.08-.89C1012.74,950.93,1013.24,950.06,1012.73,949.68Z" transform="translate(-108.92 -95.17)"/><path class="cls-15" d="M1030,940.2c-1-2.58-.34-5.49.69-8s2.43-5,3-7.7.19-5.77,1.06-8.5,3.1-5.12,4.1-7.93c.45-1.27.65-2.62,1.18-3.86a4.28,4.28,0,0,1,2.82-2.68c.62-.13,1.28,0,1.91-.18,1.52-.33,2.65-1.92,4.21-1.85,1.85.08,2.69,2.48,2.34,4.31s-1.38,3.54-1.32,5.39a9.55,9.55,0,0,0,1.24,3.81,1.14,1.14,0,0,0,.44.55c.49.26,1.13-.3,1.64-.06.35.16.45.61.48,1a12.06,12.06,0,0,1-.52,4.77,4.58,4.58,0,0,0-.39,2.58c.25.85,1.49,1.41,2,.71,1.42,3.05-2.13,6.51-1.33,9.78a1,1,0,0,1,1.3.72,2.72,2.72,0,0,1-.12,1.64,25.69,25.69,0,0,1-2.91,6.48,6.6,6.6,0,0,1-2.16,2.35,2.73,2.73,0,0,1-3-.09c-.61-.52-.86-1.35-1.41-1.93-1.46-1.53-4-.61-5.73.67s-3.47,2.93-5.56,2.61C1033,944.6,1030.65,940.88,1030,940.2Z" transform="translate(-108.92 -95.17)"/><path class="cls-15" d="M1030.48,940.06c-2-5.56,2.86-10.64,3.75-15.91.46-2.73.13-5.6,1-8.25s2.67-4.53,3.71-6.94c.94-2.16,1-5.68,3.4-6.81a5.71,5.71,0,0,1,1.93-.27,4.34,4.34,0,0,0,1.56-.47c.92-.48,1.81-1.41,2.9-1.45s1.67.88,1.93,1.78a5.49,5.49,0,0,1-.26,3.25,14.81,14.81,0,0,0-1,3.75,8.21,8.21,0,0,0,1,3.87c.25.51.47,1.16,1,1.39a1.48,1.48,0,0,0,.78,0c.29,0,.7-.3.9,0a2.45,2.45,0,0,1,.12,1,11,11,0,0,1,0,1.15,12.67,12.67,0,0,1-.46,2.59c-.35,1.16-1,2.64-.1,3.72a1.68,1.68,0,0,0,2.5.27l-.78-.1c.69,1.58-.08,3.34-.64,4.84a8.56,8.56,0,0,0-.74,4.82.5.5,0,0,0,.61.35c1-.33.71,1.28.57,1.75-.2.71-.45,1.42-.72,2.11a24.77,24.77,0,0,1-2,4.06c-.69,1.11-1.54,2.39-2.91,2.66a2,2,0,0,1-1.75-.44,13.16,13.16,0,0,1-1-1.52c-1.51-1.94-4.22-1.22-6-.09-1.08.68-2,1.59-3.11,2.25-.72.42-2.14,1.14-2.92.55a10.59,10.59,0,0,1-1.89-2.22,25.5,25.5,0,0,0-1.54-2c-.44-.47-1.14.24-.71.71,1.25,1.36,2,3.16,3.5,4.32.89.71,2.19.42,3.16,0a21.67,21.67,0,0,0,3.72-2.51,5.12,5.12,0,0,1,3.83-1.13c1.44.35,1.62,2.09,2.82,2.79a3.39,3.39,0,0,0,3.58-.32,10.36,10.36,0,0,0,2.79-3.66,25.63,25.63,0,0,0,2.18-5.25,2.85,2.85,0,0,0-.09-2.34,1.5,1.5,0,0,0-1.71-.64l.61.35c-.39-1.76.47-3.51,1-5.12a6.3,6.3,0,0,0,.23-4.78.5.5,0,0,0-.78-.11c-.33.36-.87.06-1.09-.28-.4-.6,0-1.48.14-2.09a13.92,13.92,0,0,0,.73-4.19c0-.94,0-2.6-1.25-2.69a2.13,2.13,0,0,0-.66.08c-.35.09-.49.17-.73-.19a9.83,9.83,0,0,1-.93-2.13,6.45,6.45,0,0,1,.24-4.18,11.41,11.41,0,0,0,.88-3.56c0-1.79-1-4-3.09-4a5.89,5.89,0,0,0-2.87,1.28,3.87,3.87,0,0,1-1.59.64,9.39,9.39,0,0,0-2,.22c-2.52.85-3.08,3.71-3.72,5.94-.75,2.63-2.52,4.71-3.69,7.13s-1.25,5.28-1.47,8.05a16.34,16.34,0,0,1-1.07,4.77c-.57,1.5-1.29,2.94-1.91,4.42-1.18,2.79-2,6-1,8.92C1029.73,940.93,1030.7,940.67,1030.48,940.06Z" transform="translate(-108.92 -95.17)"/><path class="cls-15" d="M1048.16,956.85a28.51,28.51,0,0,1,5.64-3.87,9.69,9.69,0,0,1,6.65-.85c3.36.94,5.9,4.23,9.37,4.36,1.39,0,2.79-.43,4.14-.11a3.59,3.59,0,0,1-1.55,7c-.81-.17-1.63-.61-2.42-.35-1.24.4-1.34,2.1-2,3.21a4,4,0,0,1-4,1.54,11.64,11.64,0,0,1-4.11-1.7c-.53,3.11,3.53,5,4.44,8.07a2.17,2.17,0,0,1-.08,1.68,1.93,1.93,0,0,1-1.61.81,4.87,4.87,0,0,1-3.61-2.13,14.88,14.88,0,0,0-2.9-3.22c-1.3-.89-3-1.09-4.35-1.81s-2.61-2.38-1.91-3.79c.39-.79,1.29-1.27,1.57-2.11.44-1.3-.8-2.5-1.88-3.34S1047.59,958.09,1048.16,956.85Z" transform="translate(-108.92 -95.17)"/><path class="cls-15" d="M1048.51,957.2c3-2.45,6.51-5.2,10.65-4.8,3.34.32,5.65,3.17,8.72,4.22a7,7,0,0,0,2.41.37,27.31,27.31,0,0,1,3-.21,3.22,3.22,0,0,1,2.92,3.28,3.17,3.17,0,0,1-3.12,2.88c-.86,0-1.63-.47-2.49-.49a2.15,2.15,0,0,0-1.78.85,8.09,8.09,0,0,0-.93,2,3,3,0,0,1-1.77,1.81c-2.09.77-4.19-.42-6-1.43a.51.51,0,0,0-.74.3c-.34,2.34,1.36,4,2.76,5.64a7,7,0,0,1,1.76,3,1.22,1.22,0,0,1-1.1,1.57,3,3,0,0,1-2-.6,16,16,0,0,1-2.9-3.25,7.5,7.5,0,0,0-3.39-2.31c-1.35-.47-2.84-.79-3.78-2a2.13,2.13,0,0,1-.51-1.86c.2-.65.82-1.08,1.23-1.6.94-1.2.54-2.54-.4-3.6s-3.16-2.15-2.43-4c.24-.6-.73-.86-1-.27-.59,1.47.34,2.91,1.46,3.83a6.65,6.65,0,0,1,1.61,1.61,1.61,1.61,0,0,1-.4,2.15,4.14,4.14,0,0,0-1.08,1.57,2.89,2.89,0,0,0,.22,2,5.43,5.43,0,0,0,3.3,2.57c.74.26,1.5.47,2.21.79a6,6,0,0,1,2.09,1.6,19.39,19.39,0,0,0,3.07,3.45,3.53,3.53,0,0,0,3.88.46c1.26-.81,1-2.39.45-3.56a16.78,16.78,0,0,0-2.56-3.39c-.84-1-1.75-2.19-1.55-3.58l-.74.3c1.76,1,3.67,2,5.76,1.76a4.17,4.17,0,0,0,3.48-2.81c.25-.65.47-1.61,1.17-1.92.85-.38,2,.36,2.86.4a4.31,4.31,0,0,0,3.94-2.41A4.13,4.13,0,0,0,1076,957c-1.49-1.58-3.44-1.22-5.39-1.08-3.84.29-6.41-3.21-9.87-4.26-4.91-1.48-9.37,1.89-13,4.79C1047.31,956.9,1048,957.6,1048.51,957.2Z" transform="translate(-108.92 -95.17)"/><path class="cls-15" d="M1013.93,964.43c.25-2.15-2.74-3.67-4.91-3.6a7.71,7.71,0,0,0-3.12.89,14.16,14.16,0,0,0-7.41,9.31c-.22,1-.27,2.17.51,2.78,1.17.9,2.73-.29,4-.95a.66.66,0,0,1,.49-.1c.43.12.27.77,0,1.15a30.92,30.92,0,0,0-3.18,6.79c-.39,1.2-.61,2.77.41,3.52.86.64,2.09.28,3-.25a10,10,0,0,0,3.17-2.9,9.34,9.34,0,0,1-.34,3.64l8.86-11.25c1.34-1.7,2.77-3.72,2.33-5.85a.82.82,0,0,0-.3-.55.9.9,0,0,0-.61,0l-3,.47Z" transform="translate(-108.92 -95.17)"/><path class="cls-15" d="M1014.43,964.43a3.58,3.58,0,0,0-2.13-3.27,6.46,6.46,0,0,0-4.7-.62,13.77,13.77,0,0,0-8.2,6.78,10.33,10.33,0,0,0-1.55,5,2.24,2.24,0,0,0,3.16,2.13c.25-.08,2.29-1.18,2.28-1.19s-.56,1.07-.63,1.2c-.29.49-.57,1-.83,1.49a20.42,20.42,0,0,0-2.2,5.72,3.37,3.37,0,0,0,.35,2.43,2.34,2.34,0,0,0,2.33.95c2.08-.28,3.93-2.08,5.1-3.71l-.93-.25a9.18,9.18,0,0,1-.33,3.5c-.13.45.52.9.84.49,3-3.86,6.11-7.69,9.12-11.58,1.2-1.55,2.47-3.4,2.28-5.46-.07-.81-.37-1.58-1.31-1.53a30.24,30.24,0,0,0-3.26.51l.63.48,0-3.05a.5.5,0,0,0-1,0l0,3.05a.51.51,0,0,0,.63.48l1.49-.23a6.35,6.35,0,0,1,1.48-.24c.23,0,.22,0,.3.25a2.61,2.61,0,0,1,.06.68,4.17,4.17,0,0,1-.21,1.27c-.58,1.85-2,3.38-3.2,4.87l-7.72,9.79.84.49a10,10,0,0,0,.36-3.77.5.5,0,0,0-.93-.25,7.85,7.85,0,0,1-4.13,3.18,1.38,1.38,0,0,1-1.81-.94,4.26,4.26,0,0,1,.25-2.23,29.12,29.12,0,0,1,2.21-5.1c.36-.66,2.2-3,.59-3.46-.65-.17-1.37.43-1.89.71s-1.63.95-2.37.5c-1.22-.76-.26-3.1.13-4.09a13.62,13.62,0,0,1,6-6.9,6.58,6.58,0,0,1,5.22-.91c1.28.39,2.84,1.33,2.71,2.85C1013.38,965.07,1014.38,965.07,1014.43,964.43Z" transform="translate(-108.92 -95.17)"/><path class="cls-15" d="M1024.7,979.67a22,22,0,0,0,1.51,7.61c1.08,2.36,3.24,4.4,5.83,4.61a7.67,7.67,0,0,1,.35-2.38c.59.17.9.79,1.38,1.16,1.06.81,2.71.2,3.46-.91a7.39,7.39,0,0,0,.87-3.86c.28,1.12,2,1.22,2.82.4a5,5,0,0,0,1-3.24l.3-4.36c.19-2.75.35-5.67-1-8.11a7.4,7.4,0,0,0-3.45-3.23,1.82,1.82,0,0,0-1-.22c-.94.15-1.17,1.39-1.17,2.34v3.58a1.88,1.88,0,0,1-.12.82,1.3,1.3,0,0,1-1.79.38,3.69,3.69,0,0,1-1.3-1.56l-3,4a1,1,0,0,1-.71.51c-.36,0-.61-.34-.89-.58-1-.86-2.69-.23-3.25,1S1024.1,978.51,1024.7,979.67Z" transform="translate(-108.92 -95.17)"/><path class="cls-15" d="M1024.2,979.67c.23,3,.47,6.06,2,8.67a7.8,7.8,0,0,0,5.84,4,.51.51,0,0,0,.5-.5,7.69,7.69,0,0,1,.33-2.24l-.61.35c.44.16.7.61,1,.91a2.37,2.37,0,0,0,1.07.57,3,3,0,0,0,2.27-.47c1.71-1.11,1.89-3.26,2-5.11l-1,.13a1.94,1.94,0,0,0,2,1.3,2.62,2.62,0,0,0,2.3-1.73,12.66,12.66,0,0,0,.58-4.11c.11-1.53.24-3.07.3-4.6.11-2.7-.16-5.51-1.89-7.7-1.06-1.34-4.4-4.1-5.5-1.38-.53,1.29-.28,2.93-.28,4.29,0,.65.26,1.87-.7,1.85-.8,0-1.24-.9-1.58-1.5a.5.5,0,0,0-.86,0l-2.83,3.74c-.24.33-.4.61-.79.34-.21-.14-.36-.35-.58-.48a2.32,2.32,0,0,0-1.41-.27,3,3,0,0,0-2.28,1.58,2.62,2.62,0,0,0-.44,1.29,3.43,3.43,0,0,0,.57,1.28c.3.56,1.16.06.86-.51-.16-.3-.45-.62-.4-1a2.38,2.38,0,0,1,.85-1.3,1.82,1.82,0,0,1,1.29-.39c.53.06.76.49,1.17.76,1,.66,1.7-.41,2.24-1.12l2.61-3.46H1032a3.28,3.28,0,0,0,2.16,2,1.64,1.64,0,0,0,1.91-1.1,7.55,7.55,0,0,0,.07-1.84v-2.26c0-.92.08-2.5,1.41-1.93,5.26,2.25,4.31,8.74,4,13.34-.1,1.36,0,3.06-.64,4.31a1.53,1.53,0,0,1-1.27.89.94.94,0,0,1-1.07-.57.51.51,0,0,0-1,.14c-.06,1.51-.13,3.48-1.62,4.34a1.73,1.73,0,0,1-2,0c-.52-.43-.81-.94-1.48-1.18a.51.51,0,0,0-.61.35,8.52,8.52,0,0,0-.37,2.51l.5-.5a6.92,6.92,0,0,1-5.16-3.87c-1.27-2.39-1.47-5.2-1.68-7.85C1025.15,979,1024.15,979,1024.2,979.67Z" transform="translate(-108.92 -95.17)"/></g></svg>