<svg id="Camada_1" data-name="Camada 1" xmlns="http://www.w3.org/2000/svg" xmlns:xlink="http://www.w3.org/1999/xlink" viewBox="0 0 1080 1920"><defs><style>.cls-1{fill:none;}.cls-2{fill:#548e00;}.cls-3{fill:#436600;}.cls-4{fill:url(#padr達obako2);}</style><pattern id="padr達obako2" data-name="padr達obako2" width="300" height="450" patternTransform="translate(17 -139)" patternUnits="userSpaceOnUse" viewBox="0 0 300 450"><rect class="cls-1" width="300" height="450"/><path class="cls-1" d="M316.65,450.57c-7.52-8.79-16.94-13.68-28.62-13.75-15.29-.09-26.72,6.85-34,20a36.87,36.87,0,0,0,3.27,40.46,6.65,6.65,0,0,1,1.16,1.73,82.46,82.46,0,0,1,29.93-24.45A97.9,97.9,0,0,0,311,459.44c2.53-2.21,5.14-4.33,7.73-6.48h0A12.05,12.05,0,0,1,316.65,450.57Z"/><path class="cls-1" d="M253.53,503.08a42.51,42.51,0,0,1-8.69-16.19c-3.75-13.07-1.7-25.29,5.5-36.74l.28-.38c-.9-1.84-1.06-3.9-1.63-5.83a93.66,93.66,0,0,0-12-25.74c-.64-1-1.56-1.88-1.54-3.11a2.44,2.44,0,0,1,1.8-2.55,2.92,2.92,0,0,1,3.44,1.06,96.32,96.32,0,0,1,9.78,17.56A91.06,91.06,0,0,1,254.59,443c.12.44.19.9.27,1.35a47.71,47.71,0,0,1,11.69-9,11.93,11.93,0,0,1,2.95-1.18c-.72-.32-1-1.07-1.38-1.75a132.75,132.75,0,0,1-7.59-18c-2.59-7.06-4.81-14.26-8.33-21a77.25,77.25,0,0,0-11.47-16.36c-5.47-6-11.59-11.24-17.45-16.8-2.48-2.35-4.73-4.94-7.56-7-.85,4.54-1.19,9.11-1.71,13.64-.64,5.57-1.35,11.14-1.85,16.72a78.86,78.86,0,0,0,1.06,21.78c1.4,7.38,4.2,14.32,6.75,21.33,2.92,8,6,16,7.22,24.51.54,3.78.82,7.58,1.47,11.35a78.22,78.22,0,0,0,12.84,31.57,74.85,74.85,0,0,0,10,11.76c1.22,1.16,1.34,1.15,2.26-.2.37-.55.76-1.08,1.16-1.6C254.29,504.21,253.92,503.53,253.53,503.08Z"/><path class="cls-2" d="M393.91,429.4c-5.16,11.86-10.15,23.79-15.55,35.54S364.93,486.22,355,494.31c-4.48,3.65-8.85,7.43-13.3,11.13-6.23,5.18-10.95,11.66-15.93,18-14.14,17.87-32.61,28.39-55.18,31.62-7.84,1.12-15.78,1-23.66,1.46-1.68.1-3.36.19-5,.22-2.31.05-3.65-1.29-3.12-3.48,3.2-13.2,4.82-26.85,11-39.18.48-1,0-1.26-.58-1.77a84.7,84.7,0,0,1-24.82-40.43,114.09,114.09,0,0,1-3-17.89c-.91-8-3.65-15.44-6.38-22.92s-5.76-14.81-7.41-22.63a89.12,89.12,0,0,1-1.09-29.61c1.29-10.35,2.4-20.72,3.58-31.09,0-.39.12-.78.15-1.17.09-1.38.52-2.58,1.93-3.06s2.54.23,3.59,1.23q12.38,11.77,24.81,23.49c10.66,10.07,18,22.19,22.8,36,2.72,7.82,5.22,15.75,9,23.17.84,1.65,1.76,3.25,2.64,4.87h0l-4.87,1.83c-.21,0-.42.09-.63.14-.72-.32-1-1.07-1.38-1.75a132.75,132.75,0,0,1-7.59-18c-2.59-7.06-4.81-14.26-8.33-21a77.25,77.25,0,0,0-11.47-16.36c-5.47-6-11.59-11.24-17.45-16.8-2.48-2.35-4.73-4.94-7.56-7-.85,4.54-1.19,9.11-1.71,13.64-.64,5.57-1.35,11.14-1.85,16.72a78.86,78.86,0,0,0,1.06,21.78c1.4,7.38,4.2,14.32,6.75,21.33,2.92,8,6,16,7.22,24.51.54,3.78.82,7.58,1.47,11.35a78.22,78.22,0,0,0,12.84,31.57,74.85,74.85,0,0,0,10,11.76c1.22,1.16,1.34,1.15,2.26-.2.37-.55.76-1.08,1.16-1.6a1.31,1.31,0,0,0,.58-.16l3.08-4.58a2.1,2.1,0,0,0-.12-.41,82.46,82.46,0,0,1,29.93-24.45A97.9,97.9,0,0,0,311,459.44c2.53-2.21,5.14-4.33,7.73-6.48h0a3,3,0,0,0,.32.2l4.39-3.69h0a89.08,89.08,0,0,1,24.2-13.31c6.62-2.34,13.51-3.67,20.31-5.32,7.51-1.82,15-3.59,22.55-5.4a2.88,2.88,0,0,1,3.06.83A2.77,2.77,0,0,1,393.91,429.4ZM386,432.57c-.46-.53-1.65.1-2.49.3q-11.74,2.77-23.47,5.57a86.63,86.63,0,0,0-23.88,9.2c-8.27,4.83-15.2,11.38-22.49,17.46-5.64,4.71-11.43,9.17-18,12.53-3.94,2-8,3.89-11.7,6.28a79.81,79.81,0,0,0-30.8,36.3c-3.15,7.24-4.6,14.94-6.3,22.57a17.21,17.21,0,0,0-.91,4.71,4.4,4.4,0,0,0,.61-.24c4.27-2.67,8.53-5.36,12.81-8,6.47-4,12.92-8.06,18.55-13.23A100.31,100.31,0,0,0,294,507.13a99.12,99.12,0,0,1,11.77-14.61,86.86,86.86,0,0,1,12-10.25,85.55,85.55,0,0,1,16.38-9.51,2.54,2.54,0,0,1,3.73,2.36c.12,1.66-.76,2.44-2.09,3.05a89.39,89.39,0,0,0-22.91,15.38,93.66,93.66,0,0,0-14.58,17.29A102.37,102.37,0,0,1,280.84,531,129.12,129.12,0,0,1,263.93,543l-11.46,7.22.14.41c4-.25,8-.6,12-.74A65.17,65.17,0,0,0,277.54,548a78.87,78.87,0,0,0,44.1-28.51,139.36,139.36,0,0,1,10.67-13.14c3.68-3.77,7.82-7,11.83-10.43,6.74-5.71,13.79-11,19.35-18a75.25,75.25,0,0,0,9.82-15.39c4.17-9.11,8-18.36,12-27.56C385.67,434.18,386.54,433.19,386,432.57Z"/><path class="cls-2" d="M270.13,434.06c-.21,0-.42.09-.63.14a11.93,11.93,0,0,0-2.95,1.18,47.71,47.71,0,0,0-11.69,9c0,.15.05.3.08.45l-4.13,5.32c-.07-.12-.12-.25-.19-.38l-.28.38c-7.2,11.44-9.25,23.67-5.5,36.74a42.51,42.51,0,0,0,8.69,16.19c.39.45.75,1.13,1.42,1.1a1.31,1.31,0,0,0,.58-.16l3.08-4.58a2.1,2.1,0,0,0-.12-.41,6.65,6.65,0,0,0-1.16-1.73,36.87,36.87,0,0,1-3.27-40.46c7.25-13.18,18.68-20.13,34-20,11.68.07,21.1,5,28.62,13.75a12.05,12.05,0,0,0,2,2.39,3,3,0,0,0,.32.2l4.39-3.69h0c-8.45-11.93-20.07-18-34.59-18.83-4.69-.25-9.26.64-13.81,1.6h0Z"/><path class="cls-2" d="M250.43,431.18a96.32,96.32,0,0,0-9.78-17.56,2.92,2.92,0,0,0-3.44-1.06,2.44,2.44,0,0,0-1.8,2.55c0,1.23.9,2.14,1.54,3.11A93.66,93.66,0,0,1,249,444c.57,1.93.73,4,1.63,5.83.06.13.12.26.19.38l4.13-5.32c0-.15-.05-.3-.08-.45-.08-.45-.15-.91-.27-1.35A91.06,91.06,0,0,0,250.43,431.18Z"/><path class="cls-1" d="M16.65,450.57C9.13,441.77-.28,436.89-12,436.82c-15.29-.09-26.72,6.85-34,20a36.87,36.87,0,0,0,3.27,40.46A6.65,6.65,0,0,1-41.51,499,82.46,82.46,0,0,1-11.58,474.6,97.9,97.9,0,0,0,11,459.44c2.53-2.21,5.14-4.33,7.73-6.48h0A12.05,12.05,0,0,1,16.65,450.57Z"/><path class="cls-2" d="M93.91,429.4c-5.16,11.86-10.15,23.79-15.55,35.54S64.93,486.22,55,494.31c-4.48,3.65-8.85,7.43-13.3,11.13-6.23,5.18-10.95,11.66-15.93,18C11.63,541.27-6.84,551.79-29.41,555c-7.84,1.12-15.78,1-23.66,1.46-1.68.1-3.36.19-5,.22-2.31.05-3.65-1.29-3.12-3.48,3.2-13.2,4.82-26.85,11-39.18.48-1,0-1.26-.58-1.77a84.7,84.7,0,0,1-24.82-40.43,114.09,114.09,0,0,1-3-17.89c-.91-8-3.65-15.44-6.38-22.92s-5.76-14.81-7.41-22.63a89.12,89.12,0,0,1-1.09-29.61c1.29-10.35,2.4-20.72,3.58-31.09,0-.39.12-.78.15-1.17.09-1.38.52-2.58,1.93-3.06s2.54.23,3.59,1.23q12.38,11.77,24.81,23.49c10.66,10.07,18,22.19,22.8,36,2.72,7.82,5.22,15.75,9,23.17.84,1.65,1.76,3.25,2.64,4.87h0l-4.87,1.83c-.21,0-.42.09-.63.14-.72-.32-1-1.07-1.38-1.75a132.75,132.75,0,0,1-7.59-18c-2.59-7.06-4.81-14.26-8.33-21a77.25,77.25,0,0,0-11.47-16.36c-5.47-6-11.59-11.24-17.45-16.8-2.48-2.35-4.73-4.94-7.56-7-.85,4.54-1.19,9.11-1.71,13.64-.64,5.57-1.35,11.14-1.85,16.72a78.86,78.86,0,0,0,1.06,21.78c1.4,7.38,4.2,14.32,6.75,21.33,2.92,8,6,16,7.22,24.51.54,3.78.82,7.58,1.47,11.35A78.22,78.22,0,0,0-58.5,494.22a74.85,74.85,0,0,0,10,11.76c1.22,1.16,1.34,1.15,2.26-.2.37-.55.76-1.08,1.16-1.6a1.31,1.31,0,0,0,.58-.16l3.08-4.58a2.1,2.1,0,0,0-.12-.41A82.46,82.46,0,0,1-11.58,474.6,97.9,97.9,0,0,0,11,459.44c2.53-2.21,5.14-4.33,7.73-6.48h0a3,3,0,0,0,.32.2l4.39-3.69h0a89.08,89.08,0,0,1,24.2-13.31c6.62-2.34,13.51-3.67,20.31-5.32,7.51-1.82,15-3.59,22.55-5.4a2.88,2.88,0,0,1,3.06.83A2.77,2.77,0,0,1,93.91,429.4ZM86,432.57c-.46-.53-1.65.1-2.49.3Q71.77,435.65,60,438.44a86.63,86.63,0,0,0-23.88,9.2c-8.27,4.83-15.2,11.38-22.49,17.46-5.64,4.71-11.43,9.17-18,12.53-3.94,2-8,3.89-11.7,6.28a79.81,79.81,0,0,0-30.8,36.3c-3.15,7.24-4.6,14.94-6.3,22.57A17.21,17.21,0,0,0-54,547.5a4.4,4.4,0,0,0,.61-.24c4.27-2.67,8.53-5.36,12.81-8,6.47-4,12.92-8.06,18.55-13.23A100.31,100.31,0,0,0-6,507.13,99.12,99.12,0,0,1,5.76,492.52a86.86,86.86,0,0,1,12-10.25,85.55,85.55,0,0,1,16.38-9.51,2.54,2.54,0,0,1,3.73,2.36c.12,1.66-.76,2.44-2.09,3.05a89.39,89.39,0,0,0-22.91,15.38A93.66,93.66,0,0,0-1.74,510.84,102.37,102.37,0,0,1-19.16,531,129.12,129.12,0,0,1-36.07,543l-11.46,7.22.14.41c4-.25,8-.6,12-.74A65.17,65.17,0,0,0-22.46,548a77.8,77.8,0,0,0,23.58-9.89,77.32,77.32,0,0,0,20.53-18.62,139.36,139.36,0,0,1,10.67-13.14c3.68-3.77,7.82-7,11.83-10.43,6.74-5.71,13.79-11,19.35-18a75.25,75.25,0,0,0,9.82-15.39c4.17-9.11,8-18.36,12-27.56C85.67,434.18,86.54,433.19,86,432.57Z"/><path class="cls-2" d="M-29.87,434.06c-.21,0-.42.09-.63.14a11.93,11.93,0,0,0-2.95,1.18,47.71,47.71,0,0,0-11.69,9c0,.15.05.3.08.45l-4.13,5.32c-.07-.12-.12-.25-.19-.38l-.28.38c-7.2,11.44-9.25,23.67-5.5,36.74a42.51,42.51,0,0,0,8.69,16.19c.39.45.75,1.13,1.42,1.1a1.31,1.31,0,0,0,.58-.16l3.08-4.58a2.1,2.1,0,0,0-.12-.41,6.65,6.65,0,0,0-1.16-1.73,36.87,36.87,0,0,1-3.27-40.46c7.25-13.18,18.68-20.13,34-20,11.68.07,21.1,5,28.62,13.75a12.05,12.05,0,0,0,2,2.39,3,3,0,0,0,.32.2l4.39-3.69h0c-8.45-11.93-20.07-18-34.59-18.83-4.69-.25-9.26.64-13.81,1.6h0Z"/><path class="cls-1" d="M166.65,225.57c-7.52-8.79-16.94-13.68-28.62-13.75-15.29-.09-26.72,6.85-34,20a36.87,36.87,0,0,0,3.27,40.46,6.65,6.65,0,0,1,1.16,1.73,82.46,82.46,0,0,1,29.93-24.45A97.9,97.9,0,0,0,161,234.44c2.53-2.21,5.14-4.33,7.73-6.48h0A12.05,12.05,0,0,1,166.65,225.57Z"/><path class="cls-1" d="M103.53,278.08a42.51,42.51,0,0,1-8.69-16.19c-3.75-13.07-1.7-25.29,5.5-36.74l.28-.38c-.9-1.84-1.06-3.9-1.63-5.83a93.66,93.66,0,0,0-12-25.74c-.64-1-1.56-1.88-1.54-3.11a2.44,2.44,0,0,1,1.8-2.55,2.92,2.92,0,0,1,3.44,1.06,96.32,96.32,0,0,1,9.78,17.56A91.06,91.06,0,0,1,104.59,218c.12.44.19.9.27,1.35a47.71,47.71,0,0,1,11.69-9,11.93,11.93,0,0,1,2.95-1.18c-.72-.32-1-1.07-1.38-1.75a132.75,132.75,0,0,1-7.59-18c-2.59-7.06-4.81-14.26-8.33-21a77.25,77.25,0,0,0-11.47-16.36c-5.47-6-11.59-11.24-17.45-16.8-2.48-2.35-4.73-4.94-7.56-7-.85,4.54-1.19,9.11-1.71,13.64-.64,5.57-1.35,11.14-1.85,16.72a78.86,78.86,0,0,0,1.06,21.78c1.4,7.38,4.2,14.32,6.75,21.33,2.92,8,6,16,7.22,24.51.54,3.78.82,7.58,1.47,11.35A78.22,78.22,0,0,0,91.5,269.22a74.85,74.85,0,0,0,10,11.76c1.22,1.16,1.34,1.15,2.26-.2.37-.55.76-1.08,1.16-1.6C104.29,279.21,103.92,278.53,103.53,278.08Z"/><path class="cls-2" d="M243.91,204.4c-5.16,11.86-10.15,23.79-15.55,35.54S214.93,261.22,205,269.31c-4.48,3.65-8.85,7.43-13.3,11.13-6.23,5.18-10.95,11.66-15.93,18-14.14,17.87-32.61,28.39-55.18,31.62-7.84,1.12-15.78,1-23.66,1.46-1.68.1-3.36.19-5,.22-2.31.05-3.65-1.29-3.12-3.48,3.2-13.2,4.82-26.85,11-39.18.48-1,0-1.26-.58-1.77a84.7,84.7,0,0,1-24.82-40.43,114.09,114.09,0,0,1-3-17.89c-.91-8-3.65-15.44-6.38-22.92s-5.76-14.81-7.41-22.63a89.12,89.12,0,0,1-1.09-29.61c1.29-10.35,2.4-20.72,3.58-31.09,0-.39.12-.78.15-1.17.09-1.38.52-2.58,1.93-3.06s2.54.23,3.59,1.23q12.38,11.77,24.81,23.49c10.66,10.07,18,22.19,22.8,36,2.72,7.82,5.22,15.75,9,23.17.84,1.65,1.76,3.25,2.64,4.87h0l-4.87,1.83c-.21,0-.42.09-.63.14-.72-.32-1-1.07-1.38-1.75a132.75,132.75,0,0,1-7.59-18c-2.59-7.06-4.81-14.26-8.33-21a77.25,77.25,0,0,0-11.47-16.36c-5.47-6-11.59-11.24-17.45-16.8-2.48-2.35-4.73-4.94-7.56-7-.85,4.54-1.19,9.11-1.71,13.64-.64,5.57-1.35,11.14-1.85,16.72a78.86,78.86,0,0,0,1.06,21.78c1.4,7.38,4.2,14.32,6.75,21.33,2.92,8,6,16,7.22,24.51.54,3.78.82,7.58,1.47,11.35A78.22,78.22,0,0,0,91.5,269.22a74.85,74.85,0,0,0,10,11.76c1.22,1.16,1.34,1.15,2.26-.2.37-.55.76-1.08,1.16-1.6a1.31,1.31,0,0,0,.58-.16l3.08-4.58a2.1,2.1,0,0,0-.12-.41,82.46,82.46,0,0,1,29.93-24.45A97.9,97.9,0,0,0,161,234.44c2.53-2.21,5.14-4.33,7.73-6.48h0a3,3,0,0,0,.32.2l4.39-3.69h0a89.08,89.08,0,0,1,24.2-13.31c6.62-2.34,13.51-3.67,20.31-5.32,7.51-1.82,15-3.59,22.55-5.4a2.88,2.88,0,0,1,3.06.83A2.77,2.77,0,0,1,243.91,204.4ZM236,207.57c-.46-.53-1.65.1-2.49.3q-11.74,2.77-23.47,5.57a86.63,86.63,0,0,0-23.88,9.2c-8.27,4.83-15.2,11.38-22.49,17.46-5.64,4.71-11.43,9.17-18,12.53-3.94,2-8,3.89-11.7,6.28a79.81,79.81,0,0,0-30.8,36.3c-3.15,7.24-4.6,14.94-6.3,22.57A17.21,17.21,0,0,0,96,322.5a4.4,4.4,0,0,0,.61-.24c4.27-2.67,8.53-5.36,12.81-8,6.47-4,12.92-8.06,18.55-13.23A100.31,100.31,0,0,0,144,282.13a99.12,99.12,0,0,1,11.77-14.61,86.86,86.86,0,0,1,12-10.25,85.55,85.55,0,0,1,16.38-9.51,2.54,2.54,0,0,1,3.73,2.36c.12,1.66-.76,2.44-2.09,3.05a89.39,89.39,0,0,0-22.91,15.38,93.66,93.66,0,0,0-14.58,17.29A102.37,102.37,0,0,1,130.84,306,129.12,129.12,0,0,1,113.93,318l-11.46,7.22.14.41c4-.25,8-.6,12-.74A65.17,65.17,0,0,0,127.54,323a78.87,78.87,0,0,0,44.1-28.51,139.36,139.36,0,0,1,10.67-13.14c3.68-3.77,7.82-7,11.83-10.43,6.74-5.71,13.79-11,19.35-18a75.25,75.25,0,0,0,9.82-15.39c4.17-9.11,8-18.36,12-27.56C235.67,209.18,236.54,208.19,236,207.57Z"/><path class="cls-2" d="M120.13,209.06c-.21,0-.42.09-.63.14a11.93,11.93,0,0,0-2.95,1.18,47.71,47.71,0,0,0-11.69,9c0,.15.05.3.08.45l-4.13,5.32c-.07-.12-.12-.25-.19-.38l-.28.38c-7.2,11.44-9.25,23.67-5.5,36.74a42.51,42.51,0,0,0,8.69,16.19c.39.45.75,1.13,1.42,1.1a1.31,1.31,0,0,0,.58-.16l3.08-4.58a2.1,2.1,0,0,0-.12-.41,6.65,6.65,0,0,0-1.16-1.73,36.87,36.87,0,0,1-3.27-40.46c7.25-13.18,18.68-20.13,34-20,11.68.07,21.1,5,28.62,13.75a12.05,12.05,0,0,0,2,2.39,3,3,0,0,0,.32.2l4.39-3.69h0c-8.45-11.93-20.07-18-34.59-18.83-4.69-.25-9.26.64-13.81,1.6h0Z"/><path class="cls-2" d="M100.43,206.18a96.32,96.32,0,0,0-9.78-17.56,2.92,2.92,0,0,0-3.44-1.06,2.44,2.44,0,0,0-1.8,2.55c0,1.23.9,2.14,1.54,3.11A93.66,93.66,0,0,1,99,219c.57,1.93.73,4,1.63,5.83.06.13.12.26.19.38l4.13-5.32c0-.15-.05-.3-.08-.45-.08-.45-.15-.91-.27-1.35A91.06,91.06,0,0,0,100.43,206.18Z"/><path class="cls-1" d="M316.65.57C309.13-8.23,299.72-13.11,288-13.18c-15.29-.09-26.72,6.85-34,20a36.87,36.87,0,0,0,3.27,40.46A6.65,6.65,0,0,1,258.49,49,82.46,82.46,0,0,1,288.42,24.6,97.9,97.9,0,0,0,311,9.44c2.53-2.21,5.14-4.33,7.73-6.48h0A12.05,12.05,0,0,1,316.65.57Z"/><path class="cls-1" d="M253.53,53.08a42.51,42.51,0,0,1-8.69-16.19c-3.75-13.07-1.7-25.29,5.5-36.74l.28-.38c-.9-1.84-1.06-3.9-1.63-5.83a93.66,93.66,0,0,0-12-25.74c-.64-1-1.56-1.88-1.54-3.11a2.44,2.44,0,0,1,1.8-2.55,2.92,2.92,0,0,1,3.44,1.06,96.32,96.32,0,0,1,9.78,17.56A91.06,91.06,0,0,1,254.59-7c.12.44.19.9.27,1.35a47.71,47.71,0,0,1,11.69-9,11.93,11.93,0,0,1,2.95-1.18c-.72-.32-1-1.07-1.38-1.75a132.75,132.75,0,0,1-7.59-18c-2.59-7.06-4.81-14.26-8.33-21a77.25,77.25,0,0,0-11.47-16.36c-5.47-6-11.59-11.24-17.45-16.8-2.48-2.35-4.73-4.94-7.56-7-.85,4.54-1.19,9.11-1.71,13.64-.64,5.57-1.35,11.14-1.85,16.72a78.86,78.86,0,0,0,1.06,21.78c1.4,7.38,4.2,14.32,6.75,21.33,2.92,8,6,16,7.22,24.51.54,3.78.82,7.58,1.47,11.35A78.22,78.22,0,0,0,241.5,44.22a74.85,74.85,0,0,0,10,11.76c1.22,1.16,1.34,1.15,2.26-.2.37-.55.76-1.08,1.16-1.6C254.29,54.21,253.92,53.53,253.53,53.08Z"/><path class="cls-2" d="M393.91-20.6C388.75-8.74,383.77,3.2,378.36,14.94S364.93,36.22,355,44.31c-4.48,3.65-8.85,7.43-13.3,11.13-6.23,5.18-10.95,11.66-15.93,18-14.14,17.87-32.61,28.39-55.18,31.62-7.84,1.12-15.78,1-23.66,1.46-1.68.1-3.36.19-5,.22-2.31.05-3.65-1.29-3.12-3.48,3.2-13.2,4.82-26.85,11-39.18.48-1,0-1.26-.58-1.77a84.7,84.7,0,0,1-24.82-40.43,114.09,114.09,0,0,1-3-17.89C220.49-4,217.75-11.49,215-19s-5.76-14.81-7.41-22.63a89.12,89.12,0,0,1-1.09-29.61c1.29-10.35,2.4-20.72,3.58-31.09,0-.39.12-.78.15-1.17.09-1.38.52-2.58,1.93-3.06s2.54.23,3.59,1.23q12.38,11.77,24.81,23.49c10.66,10.07,18,22.19,22.8,36,2.72,7.82,5.22,15.75,9,23.17.84,1.65,1.76,3.25,2.64,4.87h0l-4.87,1.83c-.21,0-.42.09-.63.14-.72-.32-1-1.07-1.38-1.75a132.75,132.75,0,0,1-7.59-18c-2.59-7.06-4.81-14.26-8.33-21a77.25,77.25,0,0,0-11.47-16.36c-5.47-6-11.59-11.24-17.45-16.8-2.48-2.35-4.73-4.94-7.56-7-.85,4.54-1.19,9.11-1.71,13.64-.64,5.57-1.35,11.14-1.85,16.72a78.86,78.86,0,0,0,1.06,21.78c1.4,7.38,4.2,14.32,6.75,21.33,2.92,8,6,16,7.22,24.51.54,3.78.82,7.58,1.47,11.35A78.22,78.22,0,0,0,241.5,44.22a74.85,74.85,0,0,0,10,11.76c1.22,1.16,1.34,1.15,2.26-.2.37-.55.76-1.08,1.16-1.6a1.31,1.31,0,0,0,.58-.16l3.08-4.58a2.1,2.1,0,0,0-.12-.41A82.46,82.46,0,0,1,288.42,24.6,97.9,97.9,0,0,0,311,9.44c2.53-2.21,5.14-4.33,7.73-6.48h0a3,3,0,0,0,.32.2l4.39-3.69h0a89.08,89.08,0,0,1,24.2-13.31c6.62-2.34,13.51-3.67,20.31-5.32,7.51-1.82,15-3.59,22.55-5.4a2.88,2.88,0,0,1,3.06.83A2.77,2.77,0,0,1,393.91-20.6ZM386-17.43c-.46-.53-1.65.1-2.49.3Q371.77-14.35,360-11.56a86.63,86.63,0,0,0-23.88,9.2C327.89,2.48,320.95,9,313.66,15.11c-5.64,4.71-11.43,9.17-18,12.53-3.94,2-8,3.89-11.7,6.28a79.81,79.81,0,0,0-30.8,36.3c-3.15,7.24-4.6,14.94-6.3,22.57A17.21,17.21,0,0,0,246,97.5a4.4,4.4,0,0,0,.61-.24c4.27-2.67,8.53-5.36,12.81-8,6.47-4,12.92-8.06,18.55-13.23A100.31,100.31,0,0,0,294,57.13a99.12,99.12,0,0,1,11.77-14.61,86.86,86.86,0,0,1,12-10.25,85.55,85.55,0,0,1,16.38-9.51,2.54,2.54,0,0,1,3.73,2.36c.12,1.66-.76,2.44-2.09,3.05a89.39,89.39,0,0,0-22.91,15.38,93.66,93.66,0,0,0-14.58,17.29A102.37,102.37,0,0,1,280.84,81,129.12,129.12,0,0,1,263.93,93l-11.46,7.22.14.41c4-.25,8-.6,12-.74A65.17,65.17,0,0,0,277.54,98a78.87,78.87,0,0,0,44.1-28.51,139.36,139.36,0,0,1,10.67-13.14c3.68-3.77,7.82-7,11.83-10.43,6.74-5.71,13.79-11,19.35-18a75.25,75.25,0,0,0,9.82-15.39c4.17-9.11,8-18.36,12-27.56C385.67-15.82,386.54-16.81,386-17.43Z"/><path class="cls-2" d="M270.13-15.94c-.21,0-.42.09-.63.14a11.93,11.93,0,0,0-2.95,1.18,47.71,47.71,0,0,0-11.69,9c0,.15.05.3.08.45L250.81.16c-.07-.12-.12-.25-.19-.38l-.28.38c-7.2,11.44-9.25,23.67-5.5,36.74a42.51,42.51,0,0,0,8.69,16.19c.39.45.75,1.13,1.42,1.1a1.31,1.31,0,0,0,.58-.16l3.08-4.58a2.1,2.1,0,0,0-.12-.41,6.65,6.65,0,0,0-1.16-1.73,36.87,36.87,0,0,1-3.27-40.46c7.25-13.18,18.68-20.13,34-20,11.68.07,21.1,5,28.62,13.75a12.05,12.05,0,0,0,2,2.39,3,3,0,0,0,.32.2l4.39-3.69h0c-8.45-11.93-20.07-18-34.59-18.83-4.69-.25-9.26.64-13.81,1.6h0Z"/><path class="cls-2" d="M250.43-18.82a96.32,96.32,0,0,0-9.78-17.56,2.92,2.92,0,0,0-3.44-1.06,2.44,2.44,0,0,0-1.8,2.55c0,1.23.9,2.14,1.54,3.11A93.66,93.66,0,0,1,249-6c.57,1.93.73,4,1.63,5.83.06.13.12.26.19.38l4.13-5.32c0-.15-.05-.3-.08-.45-.08-.45-.15-.91-.27-1.35A91.06,91.06,0,0,0,250.43-18.82Z"/><path class="cls-1" d="M16.65.57C9.13-8.23-.28-13.11-12-13.18c-15.29-.09-26.72,6.85-34,20a36.87,36.87,0,0,0,3.27,40.46A6.65,6.65,0,0,1-41.51,49,82.46,82.46,0,0,1-11.58,24.6,97.9,97.9,0,0,0,11,9.44C13.49,7.23,16.1,5.11,18.68,3h0A12.05,12.05,0,0,1,16.65.57Z"/><path class="cls-2" d="M93.91-20.6C88.75-8.74,83.77,3.2,78.36,14.94S64.93,36.22,55,44.31c-4.48,3.65-8.85,7.43-13.3,11.13-6.23,5.18-10.95,11.66-15.93,18C11.63,91.27-6.84,101.79-29.41,105c-7.84,1.12-15.78,1-23.66,1.46-1.68.1-3.36.19-5,.22-2.31.05-3.65-1.29-3.12-3.48C-58,90-56.42,76.37-50.19,64c.48-1,0-1.26-.58-1.77A84.7,84.7,0,0,1-75.59,21.83a114.09,114.09,0,0,1-3-17.89C-79.51-4-82.25-11.49-85-19s-5.76-14.81-7.41-22.63a89.12,89.12,0,0,1-1.09-29.61c1.29-10.35,2.4-20.72,3.58-31.09,0-.39.12-.78.15-1.17.09-1.38.52-2.58,1.93-3.06s2.54.23,3.59,1.23q12.38,11.77,24.81,23.49c10.66,10.07,18,22.19,22.8,36,2.72,7.82,5.22,15.75,9,23.17C-26.8-21-25.88-19.4-25-17.77h0l-4.87,1.83c-.21,0-.42.09-.63.14-.72-.32-1-1.07-1.38-1.75a132.75,132.75,0,0,1-7.59-18c-2.59-7.06-4.81-14.26-8.33-21A77.25,77.25,0,0,0-59.26-72.85c-5.47-6-11.59-11.24-17.45-16.8-2.48-2.35-4.73-4.94-7.56-7C-85.13-92.13-85.46-87.56-86-83c-.64,5.57-1.35,11.14-1.85,16.72a78.86,78.86,0,0,0,1.06,21.78c1.4,7.38,4.2,14.32,6.75,21.33,2.92,8,6,16,7.22,24.51.54,3.78.82,7.58,1.47,11.35A78.22,78.22,0,0,0-58.5,44.22,74.85,74.85,0,0,0-48.46,56c1.22,1.16,1.34,1.15,2.26-.2.37-.55.76-1.08,1.16-1.6a1.31,1.31,0,0,0,.58-.16l3.08-4.58a2.1,2.1,0,0,0-.12-.41A82.46,82.46,0,0,1-11.58,24.6,97.9,97.9,0,0,0,11,9.44C13.49,7.23,16.1,5.11,18.68,3h0a3,3,0,0,0,.32.2L23.39-.54h0a89.08,89.08,0,0,1,24.2-13.31c6.62-2.34,13.51-3.67,20.31-5.32,7.51-1.82,15-3.59,22.55-5.4a2.88,2.88,0,0,1,3.06.83A2.77,2.77,0,0,1,93.91-20.6ZM86-17.43c-.46-.53-1.65.1-2.49.3Q71.77-14.35,60-11.56a86.63,86.63,0,0,0-23.88,9.2C27.89,2.48,20.95,9,13.66,15.11,8,19.82,2.24,24.28-4.33,27.64c-3.94,2-8,3.89-11.7,6.28a79.81,79.81,0,0,0-30.8,36.3c-3.15,7.24-4.6,14.94-6.3,22.57A17.21,17.21,0,0,0-54,97.5a4.4,4.4,0,0,0,.61-.24c4.27-2.67,8.53-5.36,12.81-8,6.47-4,12.92-8.06,18.55-13.23A100.31,100.31,0,0,0-6,57.13,99.12,99.12,0,0,1,5.76,42.52a86.86,86.86,0,0,1,12-10.25A85.55,85.55,0,0,1,34.1,22.75a2.54,2.54,0,0,1,3.73,2.36c.12,1.66-.76,2.44-2.09,3.05A89.39,89.39,0,0,0,12.83,43.55,93.66,93.66,0,0,0-1.74,60.84,102.37,102.37,0,0,1-19.16,81,129.12,129.12,0,0,1-36.07,93l-11.46,7.22.14.41c4-.25,8-.6,12-.74A65.17,65.17,0,0,0-22.46,98,77.8,77.8,0,0,0,1.12,88.13,77.32,77.32,0,0,0,21.64,69.51,139.36,139.36,0,0,1,32.31,56.37c3.68-3.77,7.82-7,11.83-10.43,6.74-5.71,13.79-11,19.35-18a75.25,75.25,0,0,0,9.82-15.39c4.17-9.11,8-18.36,12-27.56C85.67-15.82,86.54-16.81,86-17.43Z"/><path class="cls-2" d="M-29.87-15.94c-.21,0-.42.09-.63.14a11.93,11.93,0,0,0-2.95,1.18,47.71,47.71,0,0,0-11.69,9c0,.15.05.3.08.45L-49.19.16c-.07-.12-.12-.25-.19-.38l-.28.38c-7.2,11.44-9.25,23.67-5.5,36.74a42.51,42.51,0,0,0,8.69,16.19c.39.45.75,1.13,1.42,1.1a1.31,1.31,0,0,0,.58-.16l3.08-4.58a2.1,2.1,0,0,0-.12-.41,6.65,6.65,0,0,0-1.16-1.73A36.87,36.87,0,0,1-45.93,6.85c7.25-13.18,18.68-20.13,34-20,11.68.07,21.1,5,28.62,13.75a12.05,12.05,0,0,0,2,2.39,3,3,0,0,0,.32.2L23.39-.54h0c-8.45-11.93-20.07-18-34.59-18.83-4.69-.25-9.26.64-13.81,1.6h0Z"/></pattern></defs><title>Padr達o4</title><rect class="cls-3" y="1" width="1080" height="1918"/><rect class="cls-4" y="1" width="1080" height="1918"/></svg>